<svg id="svg" version="1.1" xmlns="http://www.w3.org/2000/svg" xmlns:xlink="http://www.w3.org/1999/xlink" width="400" height="400" viewBox="0, 0, 400,400"><g id="svgg"><path id="path0" d="M32.500 77.064 C 31.647 77.410,31.779 333.830,32.633 334.157 C 33.933 334.656,77.411 334.429,77.920 333.920 C 78.287 333.553,78.400 323.294,78.400 290.182 C 78.400 248.851,78.432 246.895,79.128 246.265 C 79.787 245.669,82.402 245.596,106.428 245.503 L 133.000 245.400 133.402 242.200 C 133.623 240.440,134.004 238.640,134.247 238.200 C 134.491 237.760,134.808 236.076,134.952 234.458 C 135.096 232.840,135.480 231.135,135.807 230.669 C 136.178 230.139,136.400 228.883,136.400 227.310 C 136.400 225.561,136.643 224.343,137.200 223.304 C 137.764 222.252,138.001 221.044,138.003 219.206 C 138.005 217.278,138.212 216.288,138.800 215.400 C 139.400 214.494,139.595 213.521,139.597 211.431 C 139.599 209.359,139.776 208.469,140.300 207.890 C 140.824 207.311,141.036 206.246,141.141 203.658 C 141.219 201.756,141.447 199.997,141.649 199.749 C 142.358 198.879,140.067 198.811,109.780 198.805 C 86.659 198.801,79.245 198.685,78.880 198.320 C 78.514 197.954,78.400 189.196,78.400 161.343 L 78.400 124.845 79.289 124.223 C 80.078 123.670,84.459 123.599,118.389 123.594 C 139.405 123.591,156.814 123.452,157.075 123.286 C 157.889 122.768,158.400 120.847,158.400 118.305 C 158.400 116.579,158.597 115.645,159.072 115.120 C 159.553 114.589,159.795 113.409,159.922 110.989 C 160.020 109.125,160.249 107.600,160.431 107.600 C 160.961 107.600,161.595 104.788,161.598 102.431 C 161.599 101.025,161.821 100.019,162.228 99.569 C 162.631 99.124,162.940 97.750,163.090 95.738 C 163.218 94.012,163.565 92.227,163.861 91.772 C 164.156 91.316,164.513 89.516,164.652 87.772 C 164.792 86.027,165.144 84.325,165.434 83.990 C 165.749 83.626,166.009 82.092,166.081 80.190 L 166.200 77.000 99.600 76.931 C 62.970 76.893,32.775 76.953,32.500 77.064 M229.115 77.125 C 228.620 77.324,228.535 77.567,228.809 78.000 C 229.017 78.330,229.191 79.802,229.194 81.271 C 229.198 83.150,229.385 84.128,229.823 84.566 C 230.218 84.961,230.527 86.250,230.670 88.094 C 230.793 89.692,231.129 91.378,231.417 91.840 C 231.704 92.302,232.063 94.012,232.214 95.640 C 232.365 97.268,232.713 98.960,232.988 99.400 C 233.263 99.840,233.617 101.585,233.776 103.278 C 233.950 105.138,234.289 106.542,234.632 106.827 C 234.970 107.107,235.204 108.048,235.210 109.149 C 235.221 111.332,235.789 114.017,236.312 114.359 C 236.515 114.491,236.785 116.012,236.913 117.738 C 237.061 119.752,237.369 121.123,237.772 121.569 C 238.117 121.951,238.400 122.643,238.400 123.108 C 238.400 124.375,238.313 124.362,249.854 124.768 C 255.764 124.976,261.500 125.332,262.600 125.560 C 263.700 125.788,267.132 126.152,270.226 126.369 C 273.320 126.586,276.312 126.939,276.875 127.153 C 277.438 127.366,279.226 127.658,280.849 127.800 C 282.472 127.942,284.700 128.316,285.800 128.630 C 286.900 128.944,288.790 129.361,290.000 129.557 C 292.961 130.037,297.483 131.149,299.200 131.819 C 299.970 132.120,301.230 132.542,302.000 132.758 C 304.013 133.323,306.724 134.321,308.800 135.262 C 312.751 137.053,317.200 139.379,317.200 139.655 C 317.200 139.815,317.515 140.051,317.900 140.179 C 320.836 141.158,325.832 147.958,327.375 153.075 C 329.116 158.852,326.840 175.600,324.314 175.600 C 324.141 175.600,324.000 175.839,324.000 176.130 C 324.000 177.680,316.522 183.665,312.200 185.574 C 311.100 186.060,309.917 186.606,309.572 186.787 C 308.074 187.574,303.678 189.142,302.317 189.376 C 301.501 189.515,300.331 189.892,299.717 190.212 C 299.103 190.533,298.218 190.796,297.752 190.798 C 297.286 190.799,295.777 191.160,294.400 191.600 C 293.023 192.040,291.334 192.408,290.648 192.418 C 289.962 192.427,288.680 192.694,287.800 193.010 C 286.920 193.326,284.349 193.775,282.087 194.007 C 279.824 194.240,277.518 194.603,276.962 194.815 C 276.405 195.026,274.386 195.295,272.475 195.413 C 270.564 195.531,267.020 195.891,264.600 196.213 C 262.180 196.536,258.850 196.934,257.200 197.100 L 254.200 197.400 254.255 199.502 C 254.286 200.658,254.574 202.008,254.896 202.502 C 255.218 202.996,255.575 204.710,255.688 206.310 C 255.813 208.074,256.133 209.492,256.499 209.910 C 256.884 210.349,257.174 211.750,257.296 213.764 C 257.429 215.959,257.674 217.065,258.096 217.373 C 258.520 217.683,258.750 218.741,258.858 220.873 C 258.967 223.047,259.212 224.151,259.706 224.696 C 260.207 225.250,260.400 226.150,260.400 227.933 C 260.400 229.639,260.648 230.865,261.200 231.896 C 261.747 232.916,262.000 234.152,262.000 235.805 C 262.000 237.283,262.228 238.548,262.587 239.060 C 262.910 239.521,263.296 240.657,263.444 241.583 L 263.713 243.267 265.757 243.085 C 266.880 242.984,269.420 242.702,271.400 242.457 C 273.380 242.212,276.800 241.832,279.000 241.612 C 282.856 241.227,285.734 240.808,290.400 239.952 C 291.610 239.730,293.860 239.362,295.400 239.135 C 296.940 238.908,299.010 238.483,300.000 238.192 C 300.990 237.900,302.520 237.542,303.400 237.396 C 304.280 237.250,306.036 236.786,307.302 236.365 C 308.567 235.944,309.974 235.600,310.428 235.600 C 310.881 235.600,311.646 235.388,312.126 235.128 C 312.607 234.868,313.900 234.427,315.000 234.148 C 317.663 233.471,320.724 232.473,322.200 231.801 C 322.860 231.501,323.850 231.136,324.400 230.990 C 325.517 230.695,328.676 229.346,329.600 228.769 C 329.930 228.563,330.470 228.288,330.800 228.158 C 331.983 227.691,336.230 225.534,337.800 224.604 C 338.680 224.082,339.940 223.376,340.600 223.036 C 342.087 222.268,343.090 221.632,344.441 220.600 C 345.017 220.160,345.903 219.530,346.410 219.200 C 346.917 218.870,347.629 218.330,347.991 218.000 C 348.353 217.670,349.805 216.410,351.217 215.200 C 354.893 212.051,356.133 210.748,359.400 206.608 C 360.060 205.772,360.915 204.753,361.300 204.344 C 361.685 203.935,362.000 203.465,362.001 203.300 C 362.001 203.135,362.677 202.010,363.504 200.800 C 364.813 198.882,366.446 195.756,369.249 189.800 C 369.663 188.920,370.008 187.840,370.015 187.400 C 370.022 186.960,370.375 185.880,370.800 185.000 C 371.225 184.120,371.579 182.991,371.586 182.490 C 371.594 181.990,371.960 180.556,372.400 179.304 C 372.840 178.052,373.203 176.301,373.206 175.414 C 373.210 174.526,373.486 172.720,373.820 171.400 C 374.607 168.290,375.047 154.009,374.467 150.400 C 374.237 148.970,373.845 146.360,373.595 144.600 C 373.345 142.840,372.791 140.230,372.365 138.800 C 371.938 137.370,371.585 135.930,371.581 135.600 C 371.576 135.270,371.225 134.280,370.800 133.400 C 370.375 132.520,370.021 131.417,370.014 130.949 C 370.006 130.481,369.730 129.874,369.400 129.600 C 369.070 129.326,368.800 128.893,368.800 128.638 C 368.800 128.382,368.176 127.009,367.413 125.587 C 366.651 124.164,365.806 122.550,365.535 122.000 C 365.265 121.450,364.488 120.280,363.808 119.400 C 363.128 118.520,362.276 117.332,361.915 116.759 C 360.650 114.751,353.117 107.222,350.074 104.922 C 348.383 103.645,346.910 102.489,346.800 102.354 C 346.690 102.219,345.549 101.499,344.264 100.754 C 342.979 100.009,341.449 99.111,340.864 98.757 C 336.400 96.057,329.245 92.409,328.400 92.400 C 328.070 92.397,327.260 92.037,326.600 91.600 C 325.940 91.163,325.133 90.804,324.808 90.803 C 324.482 90.801,323.312 90.461,322.208 90.048 C 318.959 88.830,317.520 88.351,315.400 87.779 C 313.258 87.201,310.151 86.235,308.200 85.540 C 307.540 85.305,305.536 84.880,303.747 84.596 C 301.958 84.311,300.158 83.903,299.747 83.689 C 299.336 83.474,297.759 83.170,296.243 83.011 C 294.726 82.853,292.836 82.497,292.043 82.219 C 291.249 81.941,289.088 81.583,287.240 81.424 C 285.392 81.265,283.412 80.955,282.840 80.736 C 282.268 80.516,279.460 80.163,276.600 79.951 C 273.740 79.739,270.770 79.387,270.000 79.167 C 269.230 78.948,263.650 78.516,257.600 78.208 C 251.550 77.899,244.710 77.549,242.400 77.430 C 232.801 76.934,229.764 76.864,229.115 77.125 M178.670 243.863 C 178.522 244.012,178.400 244.283,178.400 244.467 C 178.400 244.650,187.325 244.800,198.233 244.800 C 213.922 244.800,218.032 244.696,217.900 244.300 C 217.719 243.756,179.207 243.327,178.670 243.863 " stroke="none" fill="#262626" fill-rule="evenodd"></path><path id="path1" d="M0.000 200.000 L 0.000 400.000 200.000 400.000 L 400.000 400.000 400.000 200.000 L 400.000 0.000 200.000 0.000 L 0.000 0.000 0.000 200.000 M222.394 43.287 C 222.825 43.995,223.284 45.390,223.414 46.387 C 223.544 47.384,223.810 48.920,224.006 49.800 C 224.555 52.267,225.161 55.062,226.000 59.000 C 226.422 60.980,226.967 63.500,227.211 64.600 C 227.455 65.700,227.837 67.590,228.061 68.800 C 228.284 70.010,228.757 72.098,229.111 73.441 L 229.756 75.881 235.978 76.139 C 239.400 76.281,245.080 76.411,248.600 76.428 C 252.120 76.445,255.990 76.623,257.200 76.825 C 258.410 77.026,262.280 77.380,265.800 77.610 C 269.320 77.841,273.280 78.280,274.600 78.586 C 275.920 78.892,278.846 79.254,281.102 79.390 C 283.358 79.526,285.878 79.871,286.702 80.158 C 287.526 80.445,289.561 80.791,291.223 80.928 C 292.886 81.065,294.906 81.452,295.711 81.788 C 296.516 82.125,297.905 82.400,298.797 82.400 C 299.690 82.400,301.444 82.760,302.696 83.200 C 303.948 83.640,305.609 84.006,306.386 84.014 C 307.164 84.021,308.520 84.375,309.400 84.800 C 310.280 85.225,311.450 85.585,312.000 85.600 C 312.550 85.615,313.720 85.975,314.600 86.400 C 315.480 86.825,316.650 87.185,317.200 87.200 C 317.750 87.215,318.920 87.575,319.800 88.000 C 320.680 88.425,321.716 88.779,322.101 88.786 C 322.487 88.794,323.475 89.160,324.296 89.600 C 325.116 90.040,326.174 90.400,326.645 90.400 C 327.116 90.400,327.710 90.651,327.965 90.958 C 328.220 91.265,329.034 91.630,329.774 91.769 C 330.514 91.908,331.340 92.286,331.609 92.611 C 331.878 92.935,332.412 93.200,332.795 93.200 C 333.178 93.200,333.936 93.549,334.478 93.975 C 335.020 94.402,335.958 94.875,336.564 95.027 C 337.169 95.179,337.759 95.550,337.875 95.851 C 337.991 96.153,338.402 96.400,338.789 96.400 C 339.176 96.400,339.950 96.760,340.509 97.200 C 341.069 97.640,341.637 98.000,341.772 98.000 C 341.996 98.000,344.845 99.773,345.800 100.507 C 346.020 100.676,346.947 101.306,347.861 101.907 C 352.031 104.650,362.800 115.082,362.800 116.378 C 362.800 116.624,363.054 116.922,363.363 117.041 C 363.673 117.160,364.145 117.785,364.412 118.429 C 364.679 119.073,365.052 119.600,365.241 119.600 C 365.430 119.600,365.694 120.037,365.828 120.571 C 365.962 121.104,366.416 121.852,366.836 122.233 C 367.256 122.613,367.600 123.183,367.600 123.499 C 367.600 123.815,367.960 124.531,368.400 125.091 C 368.840 125.650,369.200 126.422,369.200 126.805 C 369.200 127.188,369.458 127.717,369.774 127.979 C 370.090 128.241,370.474 129.025,370.627 129.722 C 370.780 130.418,371.138 131.351,371.423 131.794 C 371.708 132.237,372.071 133.320,372.231 134.200 C 372.390 135.080,372.746 136.160,373.022 136.600 C 373.298 137.040,373.651 138.570,373.807 140.000 C 373.962 141.430,374.267 142.820,374.485 143.090 C 375.729 144.628,375.892 170.769,374.676 173.681 C 374.373 174.407,373.994 176.159,373.834 177.575 C 373.674 178.991,373.311 180.611,373.027 181.175 C 372.743 181.739,372.387 183.010,372.235 184.000 C 372.084 184.990,371.726 186.160,371.440 186.600 C 371.154 187.040,370.799 188.057,370.650 188.860 C 370.501 189.663,370.114 190.540,369.789 190.809 C 369.465 191.078,369.200 191.612,369.200 191.996 C 369.200 192.804,365.908 199.397,365.007 200.392 C 364.673 200.761,364.400 201.237,364.400 201.450 C 364.400 201.897,364.349 201.966,359.758 207.788 C 356.583 211.813,352.053 216.475,350.454 217.363 C 350.094 217.563,348.990 218.390,348.000 219.202 C 345.827 220.984,342.569 223.238,341.200 223.906 C 340.129 224.429,339.199 224.975,337.592 226.028 C 337.038 226.391,336.138 226.827,335.592 226.998 C 335.047 227.168,334.510 227.426,334.400 227.571 C 334.290 227.716,333.120 228.337,331.800 228.952 C 330.480 229.567,328.734 230.414,327.921 230.835 C 327.107 231.256,326.117 231.601,325.721 231.603 C 325.324 231.604,324.460 231.963,323.800 232.400 C 323.140 232.837,322.194 233.196,321.699 233.197 C 321.203 233.199,320.125 233.560,319.304 234.000 C 318.484 234.440,317.395 234.800,316.886 234.800 C 316.377 234.800,315.432 235.073,314.787 235.407 C 314.142 235.740,312.756 236.129,311.707 236.270 C 310.658 236.411,309.428 236.767,308.974 237.061 C 308.520 237.355,307.260 237.711,306.174 237.854 C 305.088 237.996,303.739 238.344,303.175 238.628 C 302.611 238.911,300.991 239.261,299.575 239.404 C 298.159 239.547,296.370 239.898,295.600 240.185 C 294.830 240.471,292.686 240.838,290.836 241.000 C 288.985 241.162,286.915 241.521,286.236 241.797 C 285.556 242.073,282.790 242.423,280.089 242.574 C 277.387 242.726,274.652 243.033,274.010 243.257 C 273.368 243.480,271.258 243.784,269.321 243.932 L 265.800 244.200 265.930 246.586 C 266.002 247.898,266.296 249.535,266.584 250.223 C 266.872 250.912,267.239 252.611,267.400 254.000 C 267.561 255.389,267.919 257.082,268.195 257.763 C 268.471 258.443,268.817 259.990,268.963 261.200 C 269.109 262.410,269.477 264.210,269.780 265.200 C 270.083 266.190,270.447 267.976,270.589 269.169 C 270.730 270.362,271.014 271.653,271.220 272.037 C 271.426 272.421,271.777 274.026,272.001 275.604 C 272.224 277.181,272.657 279.311,272.962 280.336 C 273.267 281.361,273.701 283.280,273.926 284.600 C 274.151 285.920,274.530 287.855,274.768 288.900 C 275.780 293.350,275.932 294.600,275.518 295.099 C 274.912 295.830,228.673 295.831,228.119 295.100 C 227.591 294.402,226.481 290.178,226.227 287.898 C 226.110 286.851,225.760 285.141,225.449 284.098 C 225.138 283.054,224.699 281.120,224.474 279.800 C 224.249 278.480,223.883 276.590,223.660 275.600 C 223.016 272.731,222.385 269.589,221.934 267.000 C 221.705 265.680,221.260 263.739,220.946 262.686 C 220.632 261.633,220.220 259.544,220.032 258.043 C 219.843 256.542,219.502 254.965,219.274 254.537 C 219.045 254.110,218.735 252.600,218.584 251.180 C 218.433 249.761,218.056 248.195,217.746 247.700 L 217.182 246.800 198.891 246.840 C 179.133 246.883,178.656 246.920,178.493 248.416 C 178.435 248.957,178.041 251.020,177.619 253.000 C 176.639 257.591,176.065 260.437,175.560 263.200 C 175.339 264.410,174.975 266.210,174.752 267.200 C 174.528 268.190,174.168 269.990,173.952 271.200 C 173.735 272.410,173.375 274.210,173.152 275.200 C 172.928 276.190,172.568 277.990,172.352 279.200 C 172.135 280.410,171.773 282.210,171.547 283.200 C 171.320 284.190,170.905 286.350,170.625 288.000 C 170.344 289.650,169.805 292.036,169.428 293.303 L 168.741 295.606 145.271 295.503 L 121.800 295.400 121.674 293.870 C 121.605 293.028,121.754 291.498,122.005 290.470 C 122.257 289.441,122.638 287.700,122.853 286.600 C 123.068 285.500,123.584 282.980,124.000 281.000 C 124.974 276.366,125.540 273.538,126.040 270.800 C 126.261 269.590,126.627 267.790,126.853 266.800 C 127.080 265.810,127.449 263.920,127.674 262.600 C 127.899 261.280,128.321 259.390,128.612 258.400 C 128.902 257.410,129.333 255.194,129.569 253.475 C 129.806 251.756,130.179 250.013,130.400 249.601 C 131.166 248.169,130.882 247.316,129.550 247.050 C 127.045 246.549,80.595 246.765,80.080 247.280 C 79.713 247.647,79.600 257.914,79.600 291.051 L 79.600 334.342 78.546 335.171 C 77.509 335.987,77.140 336.000,55.796 336.000 C 32.158 336.000,31.904 335.985,31.246 334.540 C 30.447 332.787,30.628 77.429,31.429 76.629 C 31.995 76.062,38.661 76.000,98.829 76.000 L 165.600 76.000 165.600 75.050 C 165.600 74.528,165.845 73.403,166.144 72.550 C 166.443 71.698,166.813 69.920,166.966 68.600 C 167.119 67.280,167.490 65.390,167.791 64.400 C 168.092 63.410,168.460 61.520,168.609 60.200 C 168.759 58.880,169.041 57.499,169.237 57.132 C 169.433 56.765,169.781 55.145,170.009 53.532 C 170.237 51.919,170.683 49.700,171.001 48.600 C 171.318 47.500,171.685 45.735,171.817 44.677 C 172.156 41.951,171.153 42.054,197.706 42.025 L 221.612 42.000 222.394 43.287 M79.784 125.700 C 79.679 125.975,79.640 142.310,79.697 162.000 L 79.800 197.800 110.094 197.903 L 140.387 198.005 140.975 196.598 C 141.299 195.824,141.765 193.715,142.012 191.912 C 142.259 190.109,142.612 188.351,142.797 188.006 C 142.981 187.661,143.328 185.977,143.566 184.264 C 143.804 182.551,144.158 180.846,144.353 180.475 C 144.547 180.104,144.904 178.309,145.146 176.486 C 145.389 174.664,145.757 172.855,145.964 172.467 C 146.172 172.078,146.471 170.600,146.629 169.180 C 146.787 167.761,147.145 165.947,147.423 165.148 C 147.702 164.350,148.047 162.640,148.189 161.348 C 148.331 160.057,148.691 158.280,148.990 157.400 C 149.289 156.520,149.654 154.743,149.801 153.452 C 149.949 152.160,150.298 150.450,150.577 149.652 C 150.855 148.853,151.211 147.058,151.366 145.663 C 151.521 144.267,151.833 142.647,152.058 142.063 C 152.283 141.478,152.712 139.560,153.011 137.800 C 153.538 134.694,153.938 132.668,154.962 127.915 C 155.375 125.997,155.365 125.595,154.895 125.415 C 153.583 124.911,79.978 125.191,79.784 125.700 M240.793 125.604 C 240.347 125.880,241.021 130.947,241.776 133.000 C 242.100 133.880,242.373 135.252,242.382 136.048 C 242.392 136.844,242.760 138.623,243.200 140.000 C 243.640 141.377,244.002 143.066,244.005 143.752 C 244.008 144.438,244.368 146.141,244.805 147.536 C 245.242 148.930,245.600 150.682,245.600 151.428 C 245.600 152.173,245.860 153.462,246.177 154.292 C 246.494 155.121,246.949 157.126,247.188 158.747 C 247.426 160.367,247.779 161.987,247.970 162.347 C 248.162 162.706,248.452 164.080,248.615 165.400 C 248.779 166.720,249.134 168.434,249.406 169.208 C 249.677 169.983,250.024 171.603,250.177 172.808 C 250.330 174.014,250.700 175.810,251.000 176.800 C 251.300 177.790,251.668 179.590,251.819 180.800 C 251.969 182.010,252.264 183.327,252.474 183.727 C 252.685 184.126,253.102 185.926,253.403 187.727 C 254.535 194.520,255.152 196.104,256.564 195.846 C 257.244 195.722,260.590 195.428,264.000 195.192 C 267.410 194.957,271.460 194.506,273.000 194.192 C 274.540 193.877,277.420 193.502,279.400 193.357 C 281.380 193.213,283.203 192.935,283.451 192.739 C 283.699 192.543,285.499 192.201,287.451 191.979 C 289.403 191.757,291.450 191.335,292.000 191.041 C 292.550 190.748,294.046 190.391,295.324 190.248 C 296.602 190.104,298.042 189.742,298.524 189.441 C 299.006 189.140,300.188 188.777,301.151 188.634 C 302.114 188.491,303.279 188.110,303.740 187.787 C 304.201 187.464,304.997 187.200,305.510 187.200 C 306.022 187.200,307.107 186.856,307.921 186.435 C 308.734 186.014,310.432 185.159,311.694 184.535 C 317.431 181.697,319.462 180.127,322.996 175.800 C 323.714 174.920,324.433 173.750,324.593 173.200 C 324.753 172.650,325.139 171.795,325.451 171.300 C 327.031 168.795,327.015 152.190,325.431 150.432 C 325.118 150.084,324.739 149.305,324.588 148.700 C 324.437 148.095,324.147 147.600,323.944 147.600 C 323.741 147.600,323.455 147.285,323.309 146.900 C 323.047 146.213,318.175 141.200,317.769 141.200 C 317.655 141.200,316.503 140.497,315.210 139.638 C 313.917 138.779,312.318 137.958,311.657 137.812 C 310.996 137.667,310.256 137.309,310.013 137.016 C 309.770 136.723,308.966 136.370,308.226 136.231 C 307.486 136.092,306.660 135.714,306.391 135.389 C 306.122 135.065,305.426 134.800,304.845 134.800 C 304.264 134.800,303.116 134.440,302.296 134.000 C 301.475 133.560,300.397 133.194,299.901 133.186 C 299.406 133.179,298.280 132.825,297.400 132.400 C 296.520 131.975,295.164 131.621,294.386 131.614 C 293.609 131.606,291.948 131.240,290.696 130.800 C 289.444 130.360,287.650 129.992,286.710 129.982 C 285.769 129.973,284.280 129.699,283.400 129.373 C 282.520 129.048,279.910 128.618,277.600 128.419 C 275.290 128.220,272.884 127.861,272.253 127.621 C 271.622 127.381,267.752 127.012,263.653 126.801 C 259.554 126.590,255.570 126.246,254.800 126.037 C 253.287 125.625,241.355 125.257,240.793 125.604 M197.583 155.600 C 197.546 155.710,197.277 157.150,196.985 158.800 C 196.693 160.450,196.245 162.790,195.991 164.000 C 194.231 172.375,193.867 174.154,192.796 179.600 C 192.559 180.810,192.007 183.330,191.572 185.200 C 191.136 187.070,190.776 189.140,190.772 189.800 C 190.768 190.460,190.506 191.720,190.189 192.600 C 189.872 193.480,189.497 195.055,189.355 196.100 L 189.097 198.000 198.195 198.000 L 207.293 198.000 207.003 197.100 C 206.844 196.605,206.534 195.120,206.315 193.800 C 206.096 192.480,205.667 190.561,205.362 189.535 C 205.056 188.509,204.628 186.529,204.410 185.135 C 204.192 183.741,203.740 181.616,203.407 180.413 C 203.073 179.210,202.800 177.748,202.800 177.163 C 202.800 176.579,202.528 175.331,202.196 174.390 C 201.864 173.449,201.481 171.671,201.344 170.439 C 201.207 169.208,200.869 167.643,200.594 166.963 C 200.318 166.282,199.967 164.662,199.813 163.363 C 199.571 161.313,197.770 155.046,197.583 155.600 " stroke="none" fill="#fbfbfb" fill-rule="evenodd"></path><path id="path2" d="M173.173 43.897 L 172.200 45.000 173.226 44.100 L 174.252 43.200 197.692 43.200 C 213.302 43.200,221.201 43.337,221.337 43.610 C 221.449 43.836,221.494 43.791,221.437 43.510 C 221.355 43.105,216.475 42.979,197.739 42.897 L 174.145 42.794 173.173 43.897 M221.616 44.674 C 221.592 45.386,222.394 47.340,222.617 47.116 C 222.725 47.009,222.547 46.309,222.222 45.561 C 221.897 44.812,221.624 44.413,221.616 44.674 M171.532 50.400 C 171.406 50.950,171.178 51.760,171.026 52.200 C 170.874 52.640,171.042 52.495,171.399 51.877 C 171.757 51.259,171.985 50.449,171.905 50.077 C 171.802 49.594,171.695 49.687,171.532 50.400 M170.493 55.600 C 170.493 56.370,170.575 56.685,170.676 56.300 C 170.776 55.915,170.776 55.285,170.676 54.900 C 170.575 54.515,170.493 54.830,170.493 55.600 M169.680 59.080 C 169.088 61.009,169.375 61.295,170.000 59.400 C 170.264 58.601,170.402 57.869,170.307 57.774 C 170.212 57.678,169.930 58.266,169.680 59.080 M224.818 59.274 C 224.796 60.098,225.557 62.177,225.793 61.940 C 225.887 61.846,225.710 61.056,225.400 60.185 C 225.089 59.313,224.827 58.903,224.818 59.274 M168.893 63.600 C 168.893 64.370,168.975 64.685,169.076 64.300 C 169.176 63.915,169.176 63.285,169.076 62.900 C 168.975 62.515,168.893 62.830,168.893 63.600 M168.091 66.900 C 167.410 68.784,167.504 69.294,168.226 67.630 C 168.553 66.877,168.766 66.099,168.701 65.902 C 168.635 65.705,168.360 66.154,168.091 66.900 M226.432 67.000 C 226.430 67.440,226.686 68.250,227.000 68.800 C 227.730 70.078,227.734 69.804,227.012 67.800 C 226.695 66.920,226.434 66.560,226.432 67.000 M167.293 71.600 C 167.293 72.370,167.375 72.685,167.476 72.300 C 167.576 71.915,167.576 71.285,167.476 70.900 C 167.375 70.515,167.293 70.830,167.293 71.600 M227.693 72.000 C 227.693 72.770,227.775 73.085,227.876 72.700 C 227.976 72.315,227.976 71.685,227.876 71.300 C 227.775 70.915,227.693 71.230,227.693 72.000 M166.846 73.467 C 166.821 73.724,166.684 74.264,166.541 74.667 C 166.340 75.236,166.394 75.297,166.779 74.942 C 167.052 74.691,167.189 74.151,167.084 73.742 C 166.979 73.334,166.872 73.210,166.846 73.467 M228.046 74.651 C 228.021 75.119,228.315 75.749,228.700 76.051 C 229.309 76.528,229.340 76.522,228.943 76.000 C 228.692 75.670,228.398 75.040,228.289 74.600 C 228.103 73.840,228.090 73.843,228.046 74.651 M65.932 76.700 C 84.264 76.758,114.144 76.758,132.332 76.700 C 150.519 76.642,135.520 76.595,99.000 76.595 C 62.480 76.595,47.599 76.642,65.932 76.700 M230.500 76.687 C 231.105 76.778,232.095 76.778,232.700 76.687 C 233.305 76.595,232.810 76.520,231.600 76.520 C 230.390 76.520,229.895 76.595,230.500 76.687 M244.700 77.089 C 245.415 77.178,246.585 77.178,247.300 77.089 C 248.015 77.001,247.430 76.928,246.000 76.928 C 244.570 76.928,243.985 77.001,244.700 77.089 M31.398 205.400 C 31.398 276.020,31.444 304.970,31.500 269.732 C 31.556 234.495,31.556 176.715,31.500 141.332 C 31.444 105.950,31.398 134.780,31.398 205.400 M252.500 77.476 C 252.885 77.576,253.515 77.576,253.900 77.476 C 254.285 77.375,253.970 77.293,253.200 77.293 C 252.430 77.293,252.115 77.375,252.500 77.476 M257.700 77.876 C 258.085 77.976,258.715 77.976,259.100 77.876 C 259.485 77.775,259.170 77.693,258.400 77.693 C 257.630 77.693,257.315 77.775,257.700 77.876 M264.900 78.276 C 265.285 78.376,265.915 78.376,266.300 78.276 C 266.685 78.175,266.370 78.093,265.600 78.093 C 264.830 78.093,264.515 78.175,264.900 78.276 M98.900 124.300 C 109.185 124.359,126.015 124.359,136.300 124.300 C 146.585 124.240,138.170 124.192,117.600 124.192 C 97.030 124.192,88.615 124.240,98.900 124.300 M245.700 125.091 C 246.525 125.178,247.875 125.178,248.700 125.091 C 249.525 125.005,248.850 124.934,247.200 124.934 C 245.550 124.934,244.875 125.005,245.700 125.091 M239.014 125.578 C 238.885 125.786,239.053 126.551,239.386 127.278 C 239.769 128.114,239.893 128.232,239.723 127.600 C 239.575 127.050,239.449 126.285,239.441 125.900 C 239.427 125.103,239.345 125.042,239.014 125.578 M155.932 127.600 C 155.806 128.150,155.578 128.960,155.426 129.400 C 155.274 129.840,155.442 129.695,155.799 129.077 C 156.157 128.459,156.385 127.649,156.305 127.277 C 156.202 126.794,156.095 126.887,155.932 127.600 M240.418 132.874 C 240.396 133.698,241.157 135.777,241.393 135.540 C 241.487 135.446,241.310 134.656,241.000 133.785 C 240.689 132.913,240.427 132.503,240.418 132.874 M154.040 136.240 C 153.758 137.021,153.615 137.748,153.723 137.857 C 153.832 137.965,154.136 137.399,154.400 136.600 C 155.025 134.706,154.709 134.390,154.040 136.240 M242.032 140.600 C 242.030 141.040,242.286 141.850,242.600 142.400 C 243.330 143.678,243.334 143.404,242.612 141.400 C 242.295 140.520,242.034 140.160,242.032 140.600 M152.732 143.200 C 152.606 143.750,152.378 144.560,152.226 145.000 C 152.074 145.440,152.242 145.295,152.599 144.677 C 152.957 144.059,153.185 143.249,153.105 142.877 C 153.002 142.394,152.895 142.487,152.732 143.200 M151.693 148.800 C 151.693 149.570,151.775 149.885,151.876 149.500 C 151.976 149.115,151.976 148.485,151.876 148.100 C 151.775 147.715,151.693 148.030,151.693 148.800 M243.616 147.874 C 243.592 148.586,244.394 150.540,244.617 150.316 C 244.725 150.209,244.547 149.509,244.222 148.761 C 243.897 148.012,243.624 147.613,243.616 147.874 M151.246 150.667 C 151.221 150.924,151.084 151.464,150.941 151.867 C 150.740 152.436,150.794 152.497,151.179 152.142 C 151.452 151.891,151.589 151.351,151.484 150.942 C 151.379 150.534,151.272 150.410,151.246 150.667 M374.909 153.200 C 374.909 154.190,374.987 154.595,375.082 154.100 C 375.178 153.605,375.178 152.795,375.082 152.300 C 374.987 151.805,374.909 152.210,374.909 153.200 M196.493 156.000 C 196.493 156.770,196.575 157.085,196.676 156.700 C 196.776 156.315,196.776 155.685,196.676 155.300 C 196.575 154.915,196.493 155.230,196.493 156.000 M245.230 155.600 C 245.228 156.176,246.357 158.466,246.386 157.946 C 246.394 157.806,246.137 157.086,245.816 156.346 C 245.494 155.606,245.231 155.270,245.230 155.600 M150.093 156.800 C 150.093 157.570,150.175 157.885,150.276 157.500 C 150.376 157.115,150.376 156.485,150.276 156.100 C 150.175 155.715,150.093 156.030,150.093 156.800 M195.670 159.570 C 195.006 161.474,195.114 162.070,195.826 160.430 C 196.153 159.677,196.357 158.872,196.280 158.641 C 196.203 158.410,195.929 158.829,195.670 159.570 M246.493 160.800 C 246.493 161.570,246.575 161.885,246.676 161.500 C 246.776 161.115,246.776 160.485,246.676 160.100 C 246.575 159.715,246.493 160.030,246.493 160.800 M374.920 163.600 C 374.920 164.810,374.995 165.305,375.087 164.700 C 375.178 164.095,375.178 163.105,375.087 162.500 C 374.995 161.895,374.920 162.390,374.920 163.600 M246.832 163.000 C 246.830 163.440,247.086 164.250,247.400 164.800 C 248.130 166.078,248.134 165.804,247.412 163.800 C 247.095 162.920,246.834 162.560,246.832 163.000 M194.893 164.000 C 194.893 164.770,194.975 165.085,195.076 164.700 C 195.176 164.315,195.176 163.685,195.076 163.300 C 194.975 162.915,194.893 163.230,194.893 164.000 M200.416 163.054 C 200.407 163.304,200.663 164.114,200.984 164.854 C 201.306 165.594,201.576 165.996,201.584 165.746 C 201.593 165.496,201.337 164.686,201.016 163.946 C 200.694 163.206,200.424 162.804,200.416 163.054 M148.493 164.800 C 148.493 165.570,148.575 165.885,148.676 165.500 C 148.776 165.115,148.776 164.485,148.676 164.100 C 148.575 163.715,148.493 164.030,148.493 164.800 M194.065 167.417 C 193.809 167.978,193.608 168.744,193.618 169.119 C 193.627 169.493,193.889 169.087,194.200 168.215 C 194.845 166.404,194.759 165.894,194.065 167.417 M248.093 168.400 C 248.093 169.170,248.175 169.485,248.276 169.100 C 248.376 168.715,248.376 168.085,248.276 167.700 C 248.175 167.315,248.093 167.630,248.093 168.400 M248.428 170.676 C 248.413 171.158,248.580 171.664,248.800 171.800 C 249.273 172.092,249.273 171.701,248.800 170.600 C 248.469 169.829,248.455 169.831,248.428 170.676 M202.016 170.654 C 202.007 170.904,202.263 171.714,202.584 172.454 C 202.906 173.194,203.176 173.596,203.184 173.346 C 203.193 173.096,202.937 172.286,202.616 171.546 C 202.294 170.806,202.024 170.404,202.016 170.654 M193.293 172.000 C 193.293 172.770,193.375 173.085,193.476 172.700 C 193.576 172.315,193.576 171.685,193.476 171.300 C 193.375 170.915,193.293 171.230,193.293 172.000 M146.723 173.200 C 146.583 173.970,146.360 174.960,146.228 175.400 C 146.096 175.840,146.271 175.593,146.615 174.851 C 146.960 174.108,147.183 173.118,147.111 172.651 C 147.017 172.045,146.905 172.203,146.723 173.200 M192.411 175.371 C 192.185 175.965,192.008 176.755,192.018 177.126 C 192.027 177.497,192.289 177.087,192.600 176.215 C 193.230 174.446,193.057 173.671,192.411 175.371 M203.645 178.200 C 203.681 179.094,204.740 181.382,204.755 180.600 C 204.764 180.160,204.514 179.350,204.200 178.800 C 203.886 178.250,203.636 177.980,203.645 178.200 M190.846 183.239 C 190.601 183.943,190.412 184.808,190.427 185.160 C 190.441 185.512,190.704 184.997,191.009 184.016 C 191.649 181.962,191.515 181.322,190.846 183.239 M204.893 183.200 C 204.893 183.970,204.975 184.285,205.076 183.900 C 205.176 183.515,205.176 182.885,205.076 182.500 C 204.975 182.115,204.893 182.430,204.893 183.200 M205.220 185.600 C 205.216 185.710,205.471 186.520,205.788 187.400 C 206.105 188.280,206.366 188.640,206.368 188.200 C 206.371 187.535,205.245 184.985,205.220 185.600 M143.510 189.000 C 143.370 189.660,143.151 190.560,143.022 191.000 C 142.894 191.440,143.070 191.194,143.414 190.453 C 143.759 189.712,143.978 188.812,143.903 188.453 C 143.823 188.075,143.657 188.306,143.510 189.000 M189.190 191.026 C 188.976 191.590,188.818 192.445,188.841 192.926 C 188.872 193.598,188.953 193.523,189.191 192.600 C 189.362 191.940,189.633 191.085,189.793 190.700 C 189.954 190.315,189.972 190.000,189.833 190.000 C 189.694 190.000,189.405 190.462,189.190 191.026 M206.806 193.220 C 206.809 193.319,207.088 194.120,207.424 195.000 L 208.037 196.600 207.811 195.213 C 207.634 194.125,206.780 192.431,206.806 193.220 M142.046 196.620 C 142.021 197.071,141.821 197.657,141.601 197.921 C 141.382 198.186,141.490 198.153,141.840 197.849 C 142.190 197.544,142.390 196.958,142.285 196.547 C 142.112 195.874,142.088 195.881,142.046 196.620 M217.758 246.120 C 218.148 246.405,218.614 247.260,218.793 248.020 C 219.061 249.157,219.125 249.222,219.159 248.389 C 219.204 247.272,218.210 245.600,217.501 245.600 C 217.251 245.600,217.367 245.834,217.758 246.120 M79.362 246.900 C 78.601 247.799,78.601 247.799,79.431 247.100 C 80.510 246.192,130.191 246.000,131.201 246.900 C 131.678 247.325,131.682 247.296,131.232 246.700 C 130.737 246.046,129.029 246.000,105.413 246.000 L 80.124 246.000 79.362 246.900 M178.261 246.300 C 178.092 246.573,190.916 246.567,206.200 246.287 C 209.500 246.227,204.606 246.138,195.324 246.089 C 186.042 246.040,178.364 246.135,178.261 246.300 M176.865 250.617 C 176.609 251.178,176.413 251.944,176.428 252.319 C 176.444 252.693,176.714 252.296,177.030 251.435 C 177.683 249.653,177.566 249.077,176.865 250.617 M219.216 251.054 C 219.207 251.304,219.463 252.114,219.784 252.854 C 220.106 253.594,220.376 253.996,220.384 253.746 C 220.393 253.496,220.137 252.686,219.816 251.946 C 219.494 251.206,219.224 250.804,219.216 251.054 M265.616 251.454 C 265.607 251.704,265.863 252.514,266.184 253.254 C 266.506 253.994,266.776 254.396,266.784 254.146 C 266.793 253.896,266.537 253.086,266.216 252.346 C 265.894 251.606,265.624 251.204,265.616 251.454 M220.493 256.000 C 220.493 256.770,220.575 257.085,220.676 256.700 C 220.776 256.315,220.776 255.685,220.676 255.300 C 220.575 254.915,220.493 255.230,220.493 256.000 M175.265 258.617 C 175.009 259.178,174.808 259.944,174.818 260.319 C 174.827 260.693,175.089 260.287,175.400 259.415 C 176.045 257.604,175.959 257.094,175.265 258.617 M267.228 259.076 C 267.213 259.558,267.380 260.064,267.600 260.200 C 268.073 260.492,268.073 260.101,267.600 259.000 C 267.269 258.229,267.255 258.231,267.228 259.076 M220.820 258.800 C 220.816 258.910,221.071 259.720,221.388 260.600 C 221.705 261.480,221.966 261.840,221.968 261.400 C 221.971 260.735,220.845 258.185,220.820 258.800 M222.093 264.000 C 222.093 264.770,222.175 265.085,222.276 264.700 C 222.376 264.315,222.376 263.685,222.276 263.300 C 222.175 262.915,222.093 263.230,222.093 264.000 M268.427 264.640 C 268.400 265.493,269.194 268.141,269.411 267.920 C 269.476 267.854,269.287 266.900,268.992 265.800 C 268.696 264.700,268.442 264.178,268.427 264.640 M127.910 266.200 C 127.770 266.860,127.551 267.760,127.422 268.200 C 127.294 268.640,127.470 268.394,127.814 267.653 C 128.159 266.912,128.378 266.012,128.303 265.653 C 128.223 265.275,128.057 265.506,127.910 266.200 M173.611 266.571 C 173.385 267.165,173.208 267.955,173.218 268.326 C 173.227 268.697,173.489 268.287,173.800 267.415 C 174.430 265.646,174.257 264.871,173.611 266.571 M222.420 266.400 C 222.416 266.510,222.671 267.320,222.988 268.200 C 223.305 269.080,223.566 269.440,223.568 269.000 C 223.571 268.335,222.445 265.785,222.420 266.400 M126.130 274.671 C 125.871 275.508,125.731 276.264,125.818 276.352 C 126.071 276.604,126.845 274.323,126.716 273.706 C 126.652 273.400,126.388 273.834,126.130 274.671 M172.046 274.439 C 171.801 275.143,171.612 276.098,171.627 276.560 C 171.642 277.022,171.896 276.500,172.192 275.400 C 172.804 273.121,172.714 272.524,172.046 274.439 M224.020 274.000 C 224.016 274.110,224.271 274.920,224.588 275.800 C 224.905 276.680,225.166 277.040,225.168 276.600 C 225.171 275.935,224.045 273.385,224.020 274.000 M170.446 282.439 C 170.201 283.143,170.012 284.098,170.027 284.560 C 170.042 285.022,170.296 284.500,170.592 283.400 C 171.204 281.121,171.114 280.524,170.446 282.439 M273.218 287.274 C 273.196 288.098,273.957 290.177,274.193 289.940 C 274.287 289.846,274.110 289.056,273.800 288.185 C 273.489 287.313,273.227 286.903,273.218 287.274 M122.930 290.271 C 122.671 291.108,122.531 291.864,122.618 291.952 C 122.871 292.204,123.645 289.923,123.516 289.306 C 123.452 289.000,123.188 289.434,122.930 290.271 M227.239 289.200 C 227.224 289.310,227.467 290.210,227.779 291.200 C 228.091 292.190,228.350 292.640,228.355 292.200 C 228.363 291.503,227.308 288.671,227.239 289.200 M122.128 294.200 C 122.210 294.990,122.507 295.000,145.105 295.005 L 168.000 295.010 145.229 294.902 C 123.982 294.801,122.444 294.747,122.252 294.097 C 122.093 293.561,122.065 293.584,122.128 294.200 M228.743 294.903 C 228.910 295.070,239.296 295.160,251.823 295.103 L 274.600 295.000 251.520 294.800 C 238.826 294.690,228.576 294.737,228.743 294.903 " stroke="none" fill="#7c7c7c" fill-rule="evenodd"></path><path id="path3" d="M172.928 42.402 C 172.260 42.671,172.000 43.203,171.817 44.677 C 171.685 45.735,171.318 47.500,171.001 48.600 C 170.683 49.700,170.237 51.919,170.009 53.532 C 169.781 55.145,169.433 56.765,169.237 57.132 C 169.041 57.499,168.759 58.880,168.609 60.200 C 168.460 61.520,168.092 63.410,167.791 64.400 C 167.490 65.390,167.119 67.280,166.966 68.600 C 166.813 69.920,166.443 71.698,166.144 72.550 C 165.845 73.403,165.600 74.528,165.600 75.050 L 165.600 76.000 98.829 76.000 C 38.661 76.000,31.995 76.062,31.429 76.629 C 30.628 77.429,30.447 332.787,31.246 334.540 C 31.904 335.985,32.158 336.000,55.796 336.000 C 77.140 336.000,77.509 335.987,78.546 335.171 L 79.600 334.342 79.600 291.051 C 79.600 257.914,79.713 247.647,80.080 247.280 C 80.595 246.765,127.045 246.549,129.550 247.050 C 130.882 247.316,131.166 248.169,130.400 249.601 C 130.179 250.013,129.806 251.756,129.569 253.475 C 129.333 255.194,128.902 257.410,128.612 258.400 C 128.321 259.390,127.899 261.280,127.674 262.600 C 127.449 263.920,127.080 265.810,126.853 266.800 C 126.627 267.790,126.261 269.590,126.040 270.800 C 125.540 273.538,124.974 276.366,124.000 281.000 C 123.584 282.980,123.068 285.500,122.853 286.600 C 122.638 287.700,122.257 289.441,122.005 290.470 C 121.754 291.498,121.605 293.028,121.674 293.870 L 121.800 295.400 145.271 295.503 L 168.741 295.606 169.428 293.303 C 169.805 292.036,170.344 289.650,170.625 288.000 C 170.905 286.350,171.320 284.190,171.547 283.200 C 171.773 282.210,172.135 280.410,172.352 279.200 C 172.568 277.990,172.928 276.190,173.152 275.200 C 173.375 274.210,173.735 272.410,173.952 271.200 C 174.168 269.990,174.528 268.190,174.752 267.200 C 174.975 266.210,175.339 264.410,175.560 263.200 C 176.065 260.437,176.639 257.591,177.619 253.000 C 178.041 251.020,178.435 248.957,178.493 248.416 C 178.656 246.920,179.133 246.883,198.891 246.840 L 217.182 246.800 217.746 247.700 C 218.056 248.195,218.433 249.761,218.584 251.180 C 218.735 252.600,219.045 254.110,219.274 254.537 C 219.502 254.965,219.843 256.542,220.032 258.043 C 220.220 259.544,220.632 261.633,220.946 262.686 C 221.260 263.739,221.705 265.680,221.934 267.000 C 222.385 269.589,223.016 272.731,223.660 275.600 C 223.883 276.590,224.249 278.480,224.474 279.800 C 224.699 281.120,225.138 283.054,225.449 284.098 C 225.760 285.141,226.110 286.851,226.227 287.898 C 226.481 290.178,227.591 294.402,228.119 295.100 C 228.673 295.831,274.912 295.830,275.518 295.099 C 275.932 294.600,275.780 293.350,274.768 288.900 C 274.530 287.855,274.151 285.920,273.926 284.600 C 273.701 283.280,273.267 281.361,272.962 280.336 C 272.657 279.311,272.224 277.181,272.001 275.604 C 271.777 274.026,271.426 272.421,271.220 272.037 C 271.014 271.653,270.730 270.362,270.589 269.169 C 270.447 267.976,270.083 266.190,269.780 265.200 C 269.477 264.210,269.109 262.410,268.963 261.200 C 268.817 259.990,268.471 258.443,268.195 257.763 C 267.919 257.082,267.561 255.389,267.400 254.000 C 267.239 252.611,266.872 250.912,266.584 250.223 C 266.296 249.535,266.002 247.898,265.930 246.586 L 265.800 244.200 269.321 243.932 C 271.258 243.784,273.368 243.480,274.010 243.257 C 274.652 243.033,277.387 242.726,280.089 242.574 C 282.790 242.423,285.556 242.073,286.236 241.797 C 286.915 241.521,288.985 241.162,290.836 241.000 C 292.686 240.838,294.830 240.471,295.600 240.185 C 296.370 239.898,298.159 239.547,299.575 239.404 C 300.991 239.261,302.611 238.911,303.175 238.628 C 303.739 238.344,305.088 237.996,306.174 237.854 C 307.260 237.711,308.520 237.355,308.974 237.061 C 309.428 236.767,310.658 236.411,311.707 236.270 C 312.756 236.129,314.142 235.740,314.787 235.407 C 315.432 235.073,316.377 234.800,316.886 234.800 C 317.395 234.800,318.484 234.440,319.304 234.000 C 320.125 233.560,321.203 233.199,321.699 233.197 C 322.194 233.196,323.140 232.837,323.800 232.400 C 324.460 231.963,325.324 231.604,325.721 231.603 C 326.117 231.601,327.107 231.256,327.921 230.835 C 328.734 230.414,330.480 229.567,331.800 228.952 C 333.120 228.337,334.290 227.716,334.400 227.571 C 334.510 227.426,335.047 227.168,335.592 226.998 C 336.138 226.827,337.038 226.391,337.592 226.028 C 339.199 224.975,340.129 224.429,341.200 223.906 C 342.569 223.238,345.827 220.984,348.000 219.202 C 348.990 218.390,350.094 217.563,350.454 217.363 C 352.053 216.475,356.583 211.813,359.758 207.788 C 364.349 201.966,364.400 201.897,364.400 201.450 C 364.400 201.237,364.673 200.761,365.007 200.392 C 365.908 199.397,369.200 192.804,369.200 191.996 C 369.200 191.612,369.465 191.078,369.789 190.809 C 370.114 190.540,370.501 189.663,370.650 188.860 C 370.799 188.057,371.154 187.040,371.440 186.600 C 371.726 186.160,372.084 184.990,372.235 184.000 C 372.387 183.010,372.743 181.739,373.027 181.175 C 373.311 180.611,373.674 178.991,373.834 177.575 C 373.994 176.159,374.373 174.407,374.676 173.681 C 375.892 170.769,375.729 144.628,374.485 143.090 C 374.267 142.820,373.962 141.430,373.807 140.000 C 373.651 138.570,373.298 137.040,373.022 136.600 C 372.746 136.160,372.390 135.080,372.231 134.200 C 372.071 133.320,371.708 132.237,371.423 131.794 C 371.138 131.351,370.780 130.418,370.627 129.722 C 370.474 129.025,370.090 128.241,369.774 127.979 C 369.458 127.717,369.200 127.188,369.200 126.805 C 369.200 126.422,368.840 125.650,368.400 125.091 C 367.960 124.531,367.600 123.815,367.600 123.499 C 367.600 123.183,367.256 122.613,366.836 122.233 C 366.416 121.852,365.962 121.104,365.828 120.571 C 365.694 120.037,365.430 119.600,365.241 119.600 C 365.052 119.600,364.679 119.073,364.412 118.429 C 364.145 117.785,363.673 117.160,363.363 117.041 C 363.054 116.922,362.800 116.624,362.800 116.378 C 362.800 115.082,352.031 104.650,347.861 101.907 C 346.947 101.306,346.020 100.676,345.800 100.507 C 344.845 99.773,341.996 98.000,341.772 98.000 C 341.637 98.000,341.069 97.640,340.509 97.200 C 339.950 96.760,339.176 96.400,338.789 96.400 C 338.402 96.400,337.991 96.153,337.875 95.851 C 337.759 95.550,337.169 95.179,336.564 95.027 C 335.958 94.875,335.020 94.402,334.478 93.975 C 333.936 93.549,333.178 93.200,332.795 93.200 C 332.412 93.200,331.878 92.935,331.609 92.611 C 331.340 92.286,330.514 91.908,329.774 91.769 C 329.034 91.630,328.220 91.265,327.965 90.958 C 327.710 90.651,327.116 90.400,326.645 90.400 C 326.174 90.400,325.116 90.040,324.296 89.600 C 323.475 89.160,322.487 88.794,322.101 88.786 C 321.716 88.779,320.680 88.425,319.800 88.000 C 318.920 87.575,317.750 87.215,317.200 87.200 C 316.650 87.185,315.480 86.825,314.600 86.400 C 313.720 85.975,312.550 85.615,312.000 85.600 C 311.450 85.585,310.280 85.225,309.400 84.800 C 308.520 84.375,307.164 84.021,306.386 84.014 C 305.609 84.006,303.948 83.640,302.696 83.200 C 301.444 82.760,299.690 82.400,298.797 82.400 C 297.905 82.400,296.516 82.125,295.711 81.788 C 294.906 81.452,292.886 81.065,291.223 80.928 C 289.561 80.791,287.526 80.445,286.702 80.158 C 285.878 79.871,283.358 79.526,281.102 79.390 C 278.846 79.254,275.920 78.892,274.600 78.586 C 273.280 78.280,269.320 77.841,265.800 77.610 C 262.280 77.380,258.410 77.026,257.200 76.825 C 255.990 76.623,252.120 76.445,248.600 76.428 C 245.080 76.411,239.400 76.281,235.978 76.139 L 229.756 75.881 229.111 73.441 C 228.757 72.098,228.284 70.010,228.061 68.800 C 227.837 67.590,227.455 65.700,227.211 64.600 C 226.967 63.500,226.422 60.980,226.000 59.000 C 225.161 55.062,224.555 52.267,224.006 49.800 C 223.810 48.920,223.544 47.384,223.414 46.387 C 223.284 45.390,222.825 43.995,222.394 43.287 L 221.612 42.000 197.706 42.025 C 184.558 42.039,173.408 42.209,172.928 42.402 M222.233 45.800 C 222.723 47.340,223.307 49.680,223.530 51.000 C 223.753 52.320,224.130 54.255,224.368 55.300 C 224.605 56.345,224.995 58.055,225.232 59.100 C 225.470 60.145,225.849 62.080,226.074 63.400 C 226.299 64.720,226.733 66.639,227.038 67.664 C 227.343 68.689,227.780 70.848,228.009 72.462 C 228.605 76.664,227.851 76.401,240.440 76.796 C 251.507 77.142,261.924 77.752,267.800 78.399 C 281.321 79.886,287.804 80.782,293.800 81.994 C 299.869 83.220,301.679 83.579,304.961 84.203 C 306.700 84.533,308.320 84.962,308.561 85.156 C 308.802 85.349,309.630 85.633,310.400 85.786 C 311.170 85.939,312.970 86.432,314.400 86.881 C 316.747 87.619,318.421 88.176,325.042 90.427 C 326.165 90.808,327.425 91.294,327.842 91.506 C 328.259 91.718,329.680 92.377,331.000 92.972 C 332.320 93.566,333.670 94.212,334.000 94.408 C 334.330 94.603,335.680 95.317,337.000 95.993 C 338.320 96.670,340.120 97.663,341.000 98.201 C 341.880 98.739,343.140 99.479,343.800 99.845 C 344.460 100.212,345.090 100.623,345.200 100.760 C 345.310 100.896,346.210 101.528,347.200 102.164 C 352.819 105.774,360.033 113.061,364.408 119.547 C 370.373 128.391,373.501 137.521,374.840 150.000 C 375.430 155.490,375.040 169.370,374.211 172.400 C 373.880 173.610,373.608 175.140,373.606 175.800 C 373.603 176.839,373.173 178.649,371.610 184.200 C 366.743 201.491,354.046 216.643,336.800 225.743 C 329.350 229.675,322.286 232.800,320.853 232.800 C 320.560 232.800,319.754 233.069,319.060 233.397 C 318.367 233.726,316.810 234.273,315.600 234.613 C 314.390 234.953,312.140 235.594,310.600 236.038 C 306.669 237.170,301.790 238.374,299.200 238.851 C 297.990 239.074,295.830 239.511,294.400 239.822 C 292.970 240.132,290.720 240.498,289.400 240.635 C 288.080 240.771,286.010 241.118,284.800 241.406 C 283.590 241.693,280.980 242.037,279.000 242.170 C 269.003 242.843,264.229 243.898,264.768 245.315 C 264.964 245.830,265.253 247.320,265.410 248.626 C 265.568 249.932,265.919 251.546,266.191 252.212 C 266.463 252.879,266.817 254.476,266.978 255.761 C 267.138 257.046,267.524 258.818,267.835 259.699 C 268.146 260.580,268.400 261.779,268.400 262.363 C 268.400 262.948,268.674 264.410,269.008 265.613 C 269.342 266.816,269.807 269.055,270.041 270.588 C 270.275 272.121,270.630 273.682,270.830 274.056 C 271.030 274.430,271.379 276.043,271.606 277.641 C 271.832 279.239,272.284 281.329,272.609 282.287 C 272.934 283.244,273.200 284.555,273.200 285.200 C 273.200 285.845,273.497 287.233,273.859 288.286 C 274.221 289.339,274.536 291.280,274.559 292.600 L 274.600 295.000 251.689 295.103 C 233.550 295.185,228.749 295.102,228.640 294.703 C 227.804 291.648,226.795 287.337,226.461 285.400 C 226.020 282.836,225.396 279.720,224.740 276.800 C 224.517 275.810,224.151 273.920,223.926 272.600 C 223.701 271.280,223.267 269.361,222.962 268.336 C 222.657 267.311,222.224 265.181,222.001 263.604 C 221.777 262.026,221.428 260.426,221.226 260.048 C 221.023 259.670,220.732 258.200,220.578 256.780 C 220.424 255.361,220.077 253.654,219.806 252.988 C 219.536 252.321,219.184 250.731,219.024 249.455 C 218.636 246.350,217.733 245.423,215.462 245.796 C 214.548 245.947,205.802 246.189,196.027 246.335 L 178.254 246.600 177.523 249.400 C 177.121 250.940,176.605 253.533,176.377 255.162 C 176.149 256.790,175.787 258.451,175.573 258.851 C 175.358 259.252,175.010 260.947,174.798 262.618 C 174.586 264.289,174.140 266.460,173.806 267.442 C 173.473 268.424,173.200 269.919,173.200 270.764 C 173.200 271.608,172.933 273.055,172.608 273.978 C 172.282 274.902,171.837 276.949,171.618 278.529 C 171.399 280.108,170.946 282.384,170.610 283.587 C 170.275 284.790,170.000 286.353,170.000 287.061 C 170.000 287.769,169.799 288.855,169.552 289.474 C 169.306 290.093,168.901 291.590,168.652 292.800 L 168.200 295.000 145.200 295.000 L 122.200 295.000 122.297 293.600 C 122.350 292.830,122.644 291.300,122.952 290.200 C 123.259 289.100,123.700 287.120,123.932 285.800 C 124.696 281.453,125.236 278.626,125.650 276.800 C 125.874 275.810,126.234 274.100,126.450 273.000 C 126.666 271.900,127.184 269.380,127.600 267.400 C 128.807 261.659,129.221 259.560,129.652 257.000 C 129.874 255.680,130.296 253.700,130.590 252.600 C 131.518 249.124,131.679 247.577,131.175 246.970 C 130.401 246.037,80.565 246.126,79.531 247.062 C 78.831 247.696,78.800 249.576,78.800 290.782 C 78.800 323.738,78.687 333.953,78.320 334.320 C 77.373 335.267,32.126 334.983,31.614 334.026 C 31.331 333.498,31.200 292.710,31.200 205.216 L 31.200 77.180 32.226 76.790 C 32.878 76.542,57.457 76.400,99.594 76.400 L 165.936 76.400 166.546 74.500 C 166.881 73.455,167.281 71.526,167.435 70.212 C 167.588 68.899,167.936 67.279,168.206 66.612 C 168.477 65.946,168.821 64.271,168.970 62.891 C 169.120 61.511,169.476 59.711,169.763 58.891 C 170.049 58.071,170.413 56.239,170.571 54.820 C 170.729 53.400,171.025 51.927,171.229 51.545 C 171.434 51.163,171.795 49.444,172.032 47.725 C 172.334 45.530,172.713 44.331,173.304 43.697 L 174.145 42.794 197.744 42.897 L 221.342 43.000 222.233 45.800 M79.462 125.131 C 78.603 126.080,78.426 197.066,79.280 197.920 C 80.028 198.668,140.928 198.609,141.550 197.860 C 141.797 197.562,142.100 196.437,142.224 195.360 C 142.347 194.282,142.790 191.870,143.206 190.000 C 144.176 185.651,144.746 182.805,145.252 179.800 C 145.474 178.480,145.915 176.477,146.233 175.350 C 146.550 174.222,146.967 172.043,147.160 170.507 C 147.353 168.971,147.688 167.373,147.905 166.957 C 148.122 166.541,148.422 165.120,148.572 163.800 C 148.722 162.480,149.092 160.590,149.395 159.600 C 149.698 158.610,150.060 156.810,150.200 155.600 C 150.340 154.390,150.700 152.590,151.000 151.600 C 151.300 150.610,151.664 148.810,151.808 147.600 C 151.953 146.390,152.305 144.680,152.590 143.800 C 152.876 142.920,153.241 141.047,153.401 139.637 C 153.562 138.228,153.918 136.518,154.194 135.837 C 154.469 135.157,154.813 133.540,154.957 132.245 C 155.102 130.949,155.501 129.031,155.844 127.982 C 156.323 126.517,156.364 125.880,156.020 125.237 L 155.572 124.400 117.848 124.400 C 81.810 124.400,80.094 124.433,79.462 125.131 M240.058 125.241 C 239.380 125.503,239.192 125.800,239.385 126.303 C 239.669 127.038,240.095 128.883,240.748 132.200 C 240.965 133.300,241.323 135.010,241.543 136.000 C 242.205 138.969,242.823 142.058,243.265 144.600 C 243.495 145.920,243.926 147.720,244.225 148.600 C 244.523 149.480,244.876 151.190,245.010 152.400 C 245.144 153.610,245.499 155.320,245.800 156.200 C 246.100 157.080,246.543 159.126,246.784 160.747 C 247.025 162.367,247.376 163.987,247.565 164.347 C 247.754 164.706,248.031 165.990,248.181 167.200 C 248.332 168.410,248.700 170.210,249.000 171.200 C 249.300 172.190,249.670 173.986,249.823 175.192 C 249.976 176.397,250.323 178.017,250.594 178.792 C 250.866 179.566,251.218 181.248,251.376 182.529 C 251.535 183.809,251.896 185.429,252.180 186.129 C 252.463 186.828,252.813 188.480,252.958 189.800 C 253.234 192.317,254.223 195.492,254.964 196.240 C 255.255 196.534,256.264 196.582,258.000 196.385 C 259.430 196.222,262.850 195.880,265.600 195.626 C 268.350 195.371,271.860 194.983,273.400 194.763 C 274.940 194.543,277.550 194.183,279.200 193.961 C 280.850 193.740,283.190 193.367,284.400 193.133 C 285.610 192.898,287.860 192.476,289.400 192.195 C 293.479 191.451,297.609 190.419,299.114 189.768 C 299.836 189.456,300.691 189.200,301.014 189.200 C 301.659 189.200,307.806 187.127,309.032 186.496 C 309.455 186.279,310.970 185.535,312.400 184.841 C 323.189 179.612,327.604 172.459,327.601 160.209 C 327.600 156.665,326.556 150.945,325.733 149.969 C 325.440 149.621,325.200 149.142,325.200 148.904 C 325.200 147.879,320.948 143.030,318.200 140.922 C 316.022 139.250,306.373 134.416,305.156 134.386 C 304.850 134.379,303.880 134.025,303.000 133.600 C 302.120 133.175,301.107 132.821,300.749 132.814 C 300.391 132.806,299.413 132.514,298.577 132.164 C 297.740 131.815,296.233 131.384,295.228 131.207 C 294.223 131.030,292.230 130.611,290.800 130.275 C 286.102 129.171,282.235 128.421,280.000 128.179 C 278.790 128.048,276.450 127.694,274.800 127.393 C 273.150 127.092,270.090 126.737,268.000 126.605 C 265.910 126.473,261.770 126.111,258.800 125.801 C 251.932 125.084,241.286 124.765,240.058 125.241 M154.895 125.415 C 155.365 125.595,155.375 125.997,154.962 127.915 C 153.938 132.668,153.538 134.694,153.011 137.800 C 152.712 139.560,152.283 141.478,152.058 142.063 C 151.833 142.647,151.521 144.267,151.366 145.663 C 151.211 147.058,150.855 148.853,150.577 149.652 C 150.298 150.450,149.949 152.160,149.801 153.452 C 149.654 154.743,149.289 156.520,148.990 157.400 C 148.691 158.280,148.331 160.057,148.189 161.348 C 148.047 162.640,147.702 164.350,147.423 165.148 C 147.145 165.947,146.787 167.761,146.629 169.180 C 146.471 170.600,146.172 172.078,145.964 172.467 C 145.757 172.855,145.389 174.664,145.146 176.486 C 144.904 178.309,144.547 180.104,144.353 180.475 C 144.158 180.846,143.804 182.551,143.566 184.264 C 143.328 185.977,142.981 187.661,142.797 188.006 C 142.612 188.351,142.259 190.109,142.012 191.912 C 141.765 193.715,141.299 195.824,140.975 196.598 L 140.387 198.005 110.094 197.903 L 79.800 197.800 79.697 162.000 C 79.640 142.310,79.679 125.975,79.784 125.700 C 79.978 125.191,153.583 124.911,154.895 125.415 M254.800 126.037 C 255.570 126.246,259.554 126.590,263.653 126.801 C 267.752 127.012,271.622 127.381,272.253 127.621 C 272.884 127.861,275.290 128.220,277.600 128.419 C 279.910 128.618,282.520 129.048,283.400 129.373 C 284.280 129.699,285.769 129.973,286.710 129.982 C 287.650 129.992,289.444 130.360,290.696 130.800 C 291.948 131.240,293.609 131.606,294.386 131.614 C 295.164 131.621,296.520 131.975,297.400 132.400 C 298.280 132.825,299.406 133.179,299.901 133.186 C 300.397 133.194,301.475 133.560,302.296 134.000 C 303.116 134.440,304.264 134.800,304.845 134.800 C 305.426 134.800,306.122 135.065,306.391 135.389 C 306.660 135.714,307.486 136.092,308.226 136.231 C 308.966 136.370,309.770 136.723,310.013 137.016 C 310.256 137.309,310.996 137.667,311.657 137.812 C 312.318 137.958,313.917 138.779,315.210 139.638 C 316.503 140.497,317.655 141.200,317.769 141.200 C 318.175 141.200,323.047 146.213,323.309 146.900 C 323.455 147.285,323.741 147.600,323.944 147.600 C 324.147 147.600,324.437 148.095,324.588 148.700 C 324.739 149.305,325.118 150.084,325.431 150.432 C 327.015 152.190,327.031 168.795,325.451 171.300 C 325.139 171.795,324.753 172.650,324.593 173.200 C 324.329 174.109,322.888 176.090,320.945 178.214 C 319.830 179.433,316.548 182.021,315.187 182.754 C 314.528 183.109,312.956 183.911,311.694 184.535 C 310.432 185.159,308.734 186.014,307.921 186.435 C 307.107 186.856,306.022 187.200,305.510 187.200 C 304.997 187.200,304.201 187.464,303.740 187.787 C 303.279 188.110,302.114 188.491,301.151 188.634 C 300.188 188.777,299.006 189.140,298.524 189.441 C 298.042 189.742,296.602 190.104,295.324 190.248 C 294.046 190.391,292.550 190.748,292.000 191.041 C 291.450 191.335,289.403 191.757,287.451 191.979 C 285.499 192.201,283.699 192.543,283.451 192.739 C 283.203 192.935,281.380 193.213,279.400 193.357 C 277.420 193.502,274.540 193.877,273.000 194.192 C 271.460 194.506,267.410 194.957,264.000 195.192 C 260.590 195.428,257.244 195.722,256.564 195.846 C 255.152 196.104,254.535 194.520,253.403 187.727 C 253.102 185.926,252.685 184.126,252.474 183.727 C 252.264 183.327,251.969 182.010,251.819 180.800 C 251.668 179.590,251.300 177.790,251.000 176.800 C 250.700 175.810,250.330 174.014,250.177 172.808 C 250.024 171.603,249.677 169.983,249.406 169.208 C 249.134 168.434,248.779 166.720,248.615 165.400 C 248.452 164.080,248.162 162.706,247.970 162.347 C 247.779 161.987,247.426 160.367,247.188 158.747 C 246.949 157.126,246.494 155.121,246.177 154.292 C 245.860 153.462,245.600 152.173,245.600 151.428 C 245.600 150.682,245.242 148.930,244.805 147.536 C 244.368 146.141,244.008 144.438,244.005 143.752 C 244.002 143.066,243.640 141.377,243.200 140.000 C 242.760 138.623,242.392 136.844,242.382 136.048 C 242.373 135.252,242.100 133.880,241.776 133.000 C 241.021 130.947,240.347 125.880,240.793 125.604 C 241.355 125.257,253.287 125.625,254.800 126.037 M197.068 154.278 C 196.957 154.675,196.749 155.900,196.604 157.000 C 196.459 158.100,196.093 159.810,195.791 160.800 C 195.489 161.790,195.067 163.680,194.853 165.000 C 194.639 166.320,194.280 168.210,194.053 169.200 C 193.827 170.190,193.461 171.990,193.240 173.200 C 192.545 177.007,191.989 179.691,191.172 183.200 C 190.736 185.070,190.384 187.089,190.390 187.686 C 190.395 188.283,190.123 189.588,189.785 190.584 C 188.718 193.728,188.373 197.713,189.118 198.300 C 189.582 198.665,192.093 198.800,198.427 198.800 C 208.408 198.800,208.440 198.790,207.608 195.900 C 207.339 194.965,206.939 193.120,206.718 191.800 C 206.497 190.480,206.067 188.561,205.762 187.535 C 205.456 186.509,205.042 184.529,204.840 183.135 C 204.638 181.741,204.294 180.138,204.075 179.574 C 203.855 179.010,203.547 177.480,203.390 176.174 C 203.232 174.868,202.876 173.243,202.598 172.563 C 202.320 171.882,201.962 170.172,201.802 168.763 C 201.642 167.353,201.282 165.643,201.002 164.963 C 200.722 164.282,200.367 162.637,200.212 161.308 C 199.708 156.957,197.619 152.289,197.068 154.278 M199.813 163.363 C 199.967 164.662,200.318 166.282,200.594 166.963 C 200.869 167.643,201.207 169.208,201.344 170.439 C 201.481 171.671,201.864 173.449,202.196 174.390 C 202.528 175.331,202.800 176.579,202.800 177.163 C 202.800 177.748,203.073 179.210,203.407 180.413 C 203.740 181.616,204.192 183.741,204.410 185.135 C 204.628 186.529,205.056 188.509,205.362 189.535 C 205.667 190.561,206.096 192.480,206.315 193.800 C 206.534 195.120,206.844 196.605,207.003 197.100 L 207.293 198.000 198.195 198.000 L 189.097 198.000 189.355 196.100 C 189.497 195.055,189.872 193.480,190.189 192.600 C 190.506 191.720,190.768 190.460,190.772 189.800 C 190.776 189.140,191.136 187.070,191.572 185.200 C 192.007 183.330,192.559 180.810,192.796 179.600 C 193.867 174.154,194.231 172.375,195.991 164.000 C 196.245 162.790,196.693 160.450,196.985 158.800 C 197.277 157.150,197.546 155.710,197.583 155.600 C 197.770 155.046,199.571 161.313,199.813 163.363 " stroke="none" fill="#979797" fill-rule="evenodd"></path><path id="path4" d="M173.318 44.100 C 172.720 44.755,172.421 45.811,172.216 47.982 C 172.062 49.623,171.680 51.459,171.368 52.063 C 171.055 52.666,170.800 53.850,170.800 54.693 C 170.800 55.536,170.517 57.210,170.171 58.413 C 169.825 59.616,169.383 61.844,169.189 63.365 C 168.994 64.886,168.557 66.824,168.217 67.673 C 167.878 68.522,167.598 69.798,167.596 70.508 C 167.587 72.950,167.095 74.797,166.191 75.771 C 165.441 76.581,165.390 76.787,165.890 76.979 C 166.634 77.265,166.244 83.022,165.415 84.000 C 165.136 84.330,164.792 86.027,164.652 87.772 C 164.513 89.516,164.156 91.316,163.861 91.772 C 163.565 92.227,163.218 94.012,163.090 95.738 C 162.940 97.750,162.631 99.124,162.228 99.569 C 161.821 100.019,161.599 101.025,161.598 102.431 C 161.595 104.788,160.961 107.600,160.431 107.600 C 160.249 107.600,160.020 109.125,159.922 110.989 C 159.795 113.409,159.553 114.589,159.072 115.120 C 158.597 115.645,158.400 116.579,158.400 118.305 C 158.400 120.847,157.889 122.768,157.075 123.286 C 156.814 123.452,139.405 123.591,118.389 123.594 C 84.459 123.599,80.078 123.670,79.289 124.223 L 78.400 124.845 78.400 161.343 C 78.400 189.196,78.514 197.954,78.880 198.320 C 79.245 198.685,86.659 198.801,109.780 198.805 C 140.067 198.811,142.358 198.879,141.649 199.749 C 141.447 199.997,141.219 201.756,141.141 203.658 C 141.036 206.246,140.824 207.311,140.300 207.890 C 139.776 208.469,139.599 209.359,139.597 211.431 C 139.595 213.521,139.400 214.494,138.800 215.400 C 138.212 216.288,138.005 217.278,138.003 219.206 C 138.001 221.044,137.764 222.252,137.200 223.304 C 136.643 224.343,136.400 225.561,136.400 227.310 C 136.400 228.883,136.178 230.139,135.807 230.669 C 135.480 231.135,135.096 232.840,134.952 234.458 C 134.808 236.076,134.491 237.760,134.247 238.200 C 134.004 238.640,133.623 240.440,133.402 242.200 L 133.000 245.400 106.428 245.503 C 82.402 245.596,79.787 245.669,79.128 246.265 C 78.432 246.895,78.400 248.851,78.400 290.182 C 78.400 323.294,78.287 333.553,77.920 333.920 C 77.411 334.429,33.933 334.656,32.633 334.157 C 31.779 333.830,31.647 77.409,32.500 77.065 C 32.799 76.944,32.718 76.850,32.300 76.832 C 31.145 76.779,31.219 333.768,32.374 334.386 C 33.788 335.143,77.404 334.939,78.171 334.171 C 78.735 333.608,78.800 329.090,78.800 290.433 C 78.800 249.178,78.831 247.296,79.531 246.662 C 80.478 245.805,130.269 245.629,131.120 246.480 C 131.774 247.134,131.694 250.250,130.973 252.200 C 130.648 253.080,130.212 255.215,130.003 256.944 C 129.795 258.673,129.444 260.306,129.223 260.572 C 129.002 260.839,128.660 262.497,128.463 264.257 C 128.266 266.017,127.904 267.831,127.659 268.289 C 127.414 268.747,127.050 270.582,126.850 272.367 C 126.651 274.152,126.305 275.835,126.083 276.106 C 125.861 276.378,125.550 277.860,125.392 279.400 C 125.234 280.940,124.877 282.756,124.599 283.436 C 124.321 284.116,123.966 285.943,123.810 287.496 C 123.654 289.049,123.273 290.808,122.963 291.405 C 122.654 292.003,122.400 293.011,122.400 293.646 L 122.400 294.800 145.344 294.800 L 168.289 294.800 168.508 292.385 C 168.628 291.057,168.919 289.739,169.153 289.457 C 169.387 289.174,169.740 287.503,169.937 285.743 C 170.134 283.983,170.496 282.169,170.741 281.711 C 170.986 281.253,171.346 279.453,171.541 277.711 C 171.736 275.969,172.096 274.169,172.341 273.711 C 172.586 273.253,172.950 271.418,173.150 269.633 C 173.349 267.848,173.697 266.165,173.922 265.894 C 174.148 265.622,174.461 264.050,174.618 262.400 C 174.775 260.750,175.096 259.040,175.330 258.600 C 175.565 258.160,175.970 256.270,176.231 254.400 C 176.492 252.530,176.892 250.460,177.120 249.800 C 177.349 249.140,177.690 248.060,177.877 247.400 L 178.219 246.200 196.609 245.912 C 206.724 245.754,215.613 245.589,216.362 245.545 C 218.129 245.441,219.200 246.691,219.200 248.857 C 219.200 249.720,219.480 251.095,219.823 251.913 C 220.166 252.731,220.551 254.570,220.679 256.000 C 220.807 257.430,221.149 259.072,221.439 259.648 C 221.730 260.225,222.089 261.935,222.238 263.448 C 222.388 264.962,222.736 266.650,223.013 267.200 C 223.289 267.750,223.647 269.460,223.808 271.000 C 223.969 272.540,224.323 274.250,224.595 274.800 C 224.868 275.350,225.213 277.041,225.362 278.558 C 225.512 280.075,225.827 281.677,226.063 282.118 C 226.299 282.559,226.660 284.271,226.865 285.922 C 227.070 287.572,227.433 289.288,227.671 289.733 C 227.910 290.179,228.216 291.456,228.352 292.572 L 228.600 294.600 251.729 294.703 L 274.858 294.807 274.580 292.503 C 274.427 291.236,274.128 289.982,273.915 289.716 C 273.703 289.450,273.365 287.927,273.165 286.330 C 272.964 284.734,272.543 282.701,272.228 281.814 C 271.913 280.926,271.548 279.132,271.416 277.826 C 271.284 276.521,270.995 275.234,270.773 274.968 C 270.552 274.701,270.215 273.159,270.025 271.541 C 269.835 269.924,269.391 267.931,269.040 267.113 C 268.688 266.295,268.399 264.765,268.398 263.713 C 268.396 262.661,268.125 261.282,267.795 260.650 C 267.465 260.017,267.094 258.487,266.970 257.250 C 266.846 256.012,266.487 254.274,266.172 253.386 C 265.857 252.499,265.440 250.499,265.244 248.943 C 265.049 247.387,264.689 245.739,264.444 245.281 C 263.931 244.324,264.214 244.044,266.165 243.577 C 267.287 243.309,267.231 243.278,265.551 243.241 C 263.703 243.200,263.702 243.200,263.438 241.549 C 263.293 240.641,262.910 239.521,262.587 239.060 C 262.228 238.548,262.000 237.283,262.000 235.805 C 262.000 234.152,261.747 232.916,261.200 231.896 C 260.648 230.865,260.400 229.639,260.400 227.933 C 260.400 226.150,260.207 225.250,259.706 224.696 C 259.212 224.151,258.967 223.047,258.858 220.873 C 258.750 218.741,258.520 217.683,258.096 217.373 C 257.674 217.065,257.429 215.959,257.296 213.764 C 257.174 211.750,256.884 210.349,256.499 209.910 C 256.133 209.492,255.813 208.074,255.688 206.310 C 255.575 204.710,255.218 202.996,254.896 202.502 C 254.574 202.008,254.286 200.658,254.255 199.502 L 254.200 197.400 256.000 197.160 L 257.800 196.920 256.286 196.860 C 254.399 196.785,253.309 194.675,252.772 190.059 C 252.584 188.441,252.236 186.885,252.000 186.600 C 251.764 186.315,251.407 184.759,251.208 183.141 C 251.009 181.524,250.574 179.480,250.241 178.600 C 249.908 177.720,249.626 176.190,249.615 175.200 C 249.604 174.210,249.316 172.864,248.974 172.209 C 248.632 171.554,248.248 169.844,248.121 168.409 C 247.993 166.974,247.636 165.300,247.328 164.689 C 247.020 164.078,246.660 162.368,246.528 160.889 C 246.396 159.410,246.056 157.739,245.773 157.175 C 245.489 156.611,245.138 154.991,244.993 153.575 C 244.848 152.159,244.489 150.460,244.195 149.800 C 243.901 149.140,243.533 147.430,243.377 146.000 C 243.221 144.570,242.870 142.950,242.597 142.400 C 242.324 141.850,241.970 140.140,241.811 138.600 C 241.652 137.060,241.342 135.582,241.124 135.314 C 240.905 135.047,240.559 133.487,240.356 131.846 C 240.152 130.205,239.702 128.184,239.355 127.354 C 238.540 125.402,239.197 124.831,242.376 124.728 C 244.458 124.660,244.409 124.641,241.600 124.428 C 238.776 124.213,238.592 124.141,238.464 123.200 C 238.388 122.650,238.061 121.902,237.736 121.538 C 237.375 121.134,237.054 119.649,236.913 117.738 C 236.785 116.012,236.515 114.491,236.312 114.359 C 235.789 114.017,235.221 111.332,235.210 109.149 C 235.204 108.048,234.970 107.107,234.632 106.827 C 234.289 106.542,233.950 105.138,233.776 103.278 C 233.617 101.585,233.263 99.840,232.988 99.400 C 232.713 98.960,232.365 97.268,232.214 95.640 C 232.063 94.012,231.704 92.302,231.417 91.840 C 231.129 91.378,230.793 89.692,230.670 88.094 C 230.527 86.250,230.218 84.961,229.823 84.566 C 229.387 84.130,229.200 83.163,229.200 81.345 C 229.200 79.916,229.014 78.399,228.786 77.974 C 228.460 77.365,228.503 77.200,228.986 77.200 C 229.828 77.200,229.757 76.690,228.834 76.114 C 228.252 75.751,228.005 74.980,227.810 72.918 C 227.668 71.423,227.300 69.570,226.991 68.800 C 226.683 68.030,226.319 66.320,226.182 65.000 C 226.046 63.680,225.700 62.060,225.415 61.400 C 225.129 60.740,224.771 59.039,224.619 57.620 C 224.466 56.200,224.154 54.688,223.925 54.260 C 223.695 53.831,223.339 52.119,223.132 50.455 C 222.925 48.791,222.604 47.243,222.417 47.015 C 222.231 46.787,221.874 45.835,221.624 44.900 L 221.169 43.200 197.654 43.200 L 174.139 43.200 173.318 44.100 M238.800 77.192 C 249.141 77.738,257.701 77.976,254.200 77.621 C 252.440 77.442,246.950 77.204,242.000 77.091 C 235.058 76.933,234.326 76.956,238.800 77.192 M259.312 78.295 C 260.364 78.377,261.984 78.376,262.912 78.292 C 263.840 78.208,262.980 78.141,261.000 78.142 C 259.020 78.143,258.260 78.212,259.312 78.295 M268.000 78.840 C 268.990 79.027,270.790 79.269,272.000 79.378 C 274.106 79.568,274.080 79.553,271.400 79.013 C 269.860 78.703,268.060 78.461,267.400 78.475 C 266.481 78.494,266.621 78.580,268.000 78.840 M275.500 79.889 C 276.215 79.978,277.385 79.978,278.100 79.889 C 278.815 79.801,278.230 79.728,276.800 79.728 C 275.370 79.728,274.785 79.801,275.500 79.889 M282.200 80.609 C 283.300 80.915,284.740 81.154,285.400 81.141 C 286.200 81.126,285.800 80.937,284.200 80.576 C 281.070 79.870,279.624 79.894,282.200 80.609 M287.500 81.482 C 287.995 81.578,288.805 81.578,289.300 81.482 C 289.795 81.387,289.390 81.309,288.400 81.309 C 287.410 81.309,287.005 81.387,287.500 81.482 M292.000 82.200 C 292.770 82.497,293.940 82.741,294.600 82.743 C 295.544 82.745,295.373 82.628,293.800 82.191 C 291.264 81.486,290.162 81.492,292.000 82.200 M296.500 83.076 C 296.885 83.176,297.515 83.176,297.900 83.076 C 298.285 82.975,297.970 82.893,297.200 82.893 C 296.430 82.893,296.115 82.975,296.500 83.076 M300.200 83.814 C 300.860 84.117,301.850 84.360,302.400 84.355 C 303.104 84.349,302.867 84.179,301.600 83.779 C 299.349 83.070,298.614 83.088,300.200 83.814 M304.500 84.676 C 304.885 84.776,305.515 84.776,305.900 84.676 C 306.285 84.575,305.970 84.493,305.200 84.493 C 304.430 84.493,304.115 84.575,304.500 84.676 M307.600 85.400 C 308.150 85.714,308.870 85.971,309.200 85.970 C 309.530 85.969,309.194 85.706,308.454 85.384 C 306.751 84.645,306.294 84.653,307.600 85.400 M311.800 86.650 C 314.236 87.587,315.644 87.731,313.600 86.834 C 312.610 86.400,311.440 86.043,311.000 86.040 C 310.554 86.037,310.909 86.308,311.800 86.650 M317.000 88.250 C 317.880 88.588,319.050 88.941,319.600 89.034 C 320.150 89.128,320.330 89.097,320.000 88.966 C 319.670 88.835,318.833 88.474,318.140 88.164 C 317.446 87.854,316.546 87.608,316.140 87.618 C 315.733 87.627,316.120 87.912,317.000 88.250 M322.344 90.009 C 323.303 90.444,324.293 90.796,324.544 90.791 C 324.795 90.786,324.215 90.426,323.256 89.991 C 322.297 89.556,321.307 89.204,321.056 89.209 C 320.805 89.214,321.385 89.574,322.344 90.009 M326.600 91.600 C 327.260 92.037,328.067 92.396,328.394 92.397 C 328.721 92.399,328.316 92.040,327.496 91.600 C 325.578 90.572,325.048 90.572,326.600 91.600 M330.504 93.200 C 332.435 94.235,332.988 94.234,331.290 93.199 C 330.570 92.759,329.763 92.400,329.496 92.400 C 329.230 92.400,329.684 92.760,330.504 93.200 M333.800 94.800 C 334.460 95.237,335.180 95.595,335.400 95.596 C 335.620 95.596,335.211 95.238,334.490 94.799 C 332.792 93.763,332.236 93.764,333.800 94.800 M336.170 95.951 C 336.289 96.145,336.975 96.597,337.694 96.956 C 338.412 97.315,339.720 98.047,340.600 98.583 C 343.752 100.503,345.600 101.541,345.600 101.393 C 345.600 101.263,344.658 100.640,340.600 98.087 C 340.160 97.810,339.227 97.320,338.527 96.998 C 337.827 96.676,337.142 96.229,337.004 96.006 C 336.866 95.783,336.573 95.600,336.353 95.600 C 336.133 95.600,336.051 95.758,336.170 95.951 M346.825 102.288 C 346.838 102.460,348.108 103.500,349.646 104.600 C 352.714 106.794,360.678 114.789,362.205 117.208 C 363.066 118.572,364.000 119.542,364.000 119.072 C 364.000 118.713,360.390 114.263,358.246 111.980 C 354.274 107.750,346.752 101.366,346.825 102.288 M364.453 120.207 C 364.812 120.643,365.224 121.389,365.368 121.864 C 365.513 122.339,365.874 122.930,366.171 123.176 C 366.498 123.447,366.400 122.995,365.926 122.037 C 365.494 121.163,364.839 120.216,364.470 119.931 C 363.847 119.450,363.846 119.469,364.453 120.207 M155.374 124.390 C 156.573 124.846,156.814 127.219,155.855 129.120 C 155.555 129.714,155.189 131.427,155.041 132.927 C 154.893 134.426,154.523 136.316,154.218 137.127 C 153.913 137.937,153.547 139.759,153.404 141.175 C 153.261 142.591,152.911 144.211,152.627 144.775 C 152.343 145.339,152.009 147.060,151.885 148.600 C 151.762 150.140,151.378 151.940,151.033 152.600 C 150.687 153.260,150.396 154.700,150.385 155.800 C 150.374 156.900,150.091 158.520,149.757 159.400 C 149.422 160.280,148.991 162.408,148.798 164.130 C 148.606 165.851,148.247 167.503,148.000 167.800 C 147.753 168.097,147.409 169.756,147.235 171.487 C 147.060 173.217,146.703 175.034,146.440 175.525 C 146.178 176.015,145.797 177.872,145.594 179.652 C 145.391 181.432,145.048 183.101,144.832 183.361 C 144.616 183.622,144.317 185.087,144.168 186.617 C 144.018 188.148,143.648 190.009,143.346 190.754 C 143.043 191.499,142.681 193.343,142.540 194.853 C 142.180 198.726,145.081 198.417,110.156 198.302 L 79.000 198.200 78.893 161.800 L 78.786 125.400 79.637 124.700 C 80.624 123.888,153.272 123.591,155.374 124.390 M366.800 124.112 C 366.800 124.247,367.250 125.204,367.800 126.238 C 368.350 127.273,368.800 128.340,368.800 128.611 C 368.800 128.881,369.070 129.326,369.400 129.600 C 370.256 130.311,370.172 130.044,368.564 126.957 C 367.115 124.172,366.800 123.665,366.800 124.112 M254.200 125.186 C 256.400 125.356,259.460 125.604,261.000 125.739 C 263.161 125.928,263.480 125.897,262.400 125.601 C 261.630 125.390,258.570 125.141,255.600 125.048 C 250.652 124.893,250.535 124.905,254.200 125.186 M264.900 126.287 C 265.505 126.378,266.495 126.378,267.100 126.287 C 267.705 126.195,267.210 126.120,266.000 126.120 C 264.790 126.120,264.295 126.195,264.900 126.287 M272.000 126.777 C 277.303 127.594,277.851 127.641,276.837 127.199 C 276.307 126.968,274.507 126.702,272.837 126.609 C 270.033 126.451,269.969 126.464,272.000 126.777 M278.500 127.876 C 278.885 127.976,279.515 127.976,279.900 127.876 C 280.285 127.775,279.970 127.693,279.200 127.693 C 278.430 127.693,278.115 127.775,278.500 127.876 M283.976 128.622 C 285.393 128.929,286.625 129.108,286.714 129.020 C 286.985 128.748,283.875 128.003,282.600 128.034 C 281.842 128.053,282.349 128.269,283.976 128.622 M290.600 129.846 C 291.040 129.968,292.171 130.323,293.114 130.634 C 294.057 130.945,295.227 131.188,295.714 131.173 C 296.756 131.141,293.233 130.077,291.200 129.809 C 290.430 129.708,290.160 129.725,290.600 129.846 M370.031 131.000 C 370.029 131.440,370.392 132.520,370.838 133.400 C 371.714 135.128,371.622 134.372,370.644 131.800 C 370.297 130.888,370.033 130.544,370.031 131.000 M298.200 131.812 C 300.204 132.534,300.478 132.530,299.200 131.800 C 298.650 131.486,297.840 131.230,297.400 131.232 C 296.960 131.234,297.320 131.495,298.200 131.812 M303.400 133.562 C 304.280 134.008,305.232 134.379,305.516 134.386 C 305.800 134.394,306.738 134.760,307.600 135.200 C 308.462 135.640,309.400 136.000,309.684 136.000 C 310.710 135.999,305.018 133.548,302.600 132.949 C 302.160 132.840,302.520 133.116,303.400 133.562 M371.807 136.495 C 372.028 137.948,373.159 141.002,373.178 140.200 C 373.184 139.980,372.826 138.720,372.383 137.400 C 371.795 135.645,371.640 135.402,371.807 136.495 M310.400 136.189 C 310.400 136.293,311.525 136.936,312.900 137.617 C 317.645 139.970,321.397 143.033,324.335 146.954 C 324.811 147.589,325.200 147.967,325.200 147.795 C 325.200 146.971,319.120 140.435,318.329 140.409 C 318.179 140.404,317.799 140.142,317.485 139.827 C 316.564 138.906,310.400 135.741,310.400 136.189 M373.238 142.245 C 373.217 142.930,373.403 144.460,373.651 145.645 C 373.899 146.830,374.250 148.610,374.431 149.600 C 374.719 151.177,374.735 151.103,374.557 149.000 C 374.281 145.744,373.287 140.655,373.238 142.245 M325.203 148.415 C 325.201 148.534,325.560 149.337,326.000 150.200 C 326.440 151.063,326.799 151.506,326.797 151.185 C 326.796 150.863,326.437 150.060,326.000 149.400 C 325.563 148.740,325.204 148.297,325.203 148.415 M327.036 153.200 C 327.187 153.970,327.440 155.500,327.599 156.600 L 327.887 158.600 327.938 156.800 C 327.965 155.810,327.712 154.280,327.376 153.400 C 326.769 151.814,326.766 151.812,327.036 153.200 M198.638 154.700 C 198.967 155.525,199.410 156.560,199.623 157.000 C 199.836 157.440,200.168 159.079,200.361 160.643 C 200.553 162.207,200.902 163.844,201.137 164.281 C 201.371 164.719,201.730 166.428,201.935 168.078 C 202.140 169.729,202.510 171.459,202.758 171.922 C 203.006 172.384,203.322 173.896,203.460 175.282 C 203.599 176.667,203.949 178.272,204.239 178.848 C 204.530 179.425,204.889 181.135,205.038 182.648 C 205.188 184.162,205.534 185.850,205.808 186.400 C 206.082 186.950,206.431 188.570,206.582 190.000 C 206.733 191.430,207.125 193.189,207.451 193.908 C 207.778 194.628,207.990 195.978,207.923 196.908 L 207.800 198.600 198.200 198.600 L 188.600 198.600 188.731 195.200 C 188.803 193.330,189.116 191.283,189.425 190.651 C 189.735 190.019,190.104 188.309,190.246 186.851 C 190.388 185.393,190.735 183.632,191.016 182.937 C 191.298 182.242,191.655 180.442,191.809 178.937 C 191.963 177.432,192.324 175.660,192.612 175.000 C 192.900 174.340,193.259 172.540,193.410 171.000 C 193.561 169.460,193.911 167.750,194.187 167.200 C 194.464 166.650,194.812 164.961,194.962 163.448 C 195.111 161.934,195.496 160.067,195.817 159.299 C 196.137 158.531,196.400 157.306,196.400 156.577 C 196.400 153.353,197.676 152.283,198.638 154.700 M374.942 158.200 C 374.941 160.180,375.008 161.040,375.092 160.112 C 375.176 159.184,375.177 157.564,375.095 156.512 C 375.012 155.460,374.943 156.220,374.942 158.200 M327.516 163.000 C 327.359 165.200,327.132 167.540,327.010 168.200 C 326.889 168.860,327.069 168.539,327.411 167.487 C 327.821 166.222,327.993 164.460,327.916 162.287 L 327.800 159.000 327.516 163.000 M374.514 167.400 C 374.517 168.500,374.595 168.903,374.687 168.295 C 374.779 167.686,374.777 166.786,374.682 166.295 C 374.587 165.803,374.511 166.300,374.514 167.400 M373.613 172.206 C 373.334 173.750,373.196 175.370,373.306 175.806 C 373.437 176.321,373.523 176.136,373.554 175.277 C 373.579 174.550,373.799 173.165,374.041 172.201 C 374.284 171.237,374.401 170.212,374.302 169.924 C 374.202 169.636,373.892 170.663,373.613 172.206 M326.432 170.508 C 326.414 170.897,325.874 172.202,325.230 173.408 C 324.587 174.613,324.188 175.600,324.344 175.600 C 324.817 175.600,326.898 170.888,326.673 170.325 C 326.537 169.984,326.452 170.049,326.432 170.508 M321.886 178.225 C 320.036 180.278,315.794 183.389,312.698 184.964 C 311.871 185.385,311.265 185.798,311.350 185.883 C 311.764 186.297,317.609 182.684,320.307 180.346 C 321.916 178.951,324.161 176.421,323.953 176.238 C 323.869 176.163,322.939 177.058,321.886 178.225 M372.440 179.040 C 372.158 179.821,372.015 180.548,372.123 180.657 C 372.232 180.765,372.536 180.199,372.800 179.400 C 373.425 177.506,373.109 177.190,372.440 179.040 M370.686 185.222 C 370.309 186.093,370.021 187.209,370.046 187.703 C 370.088 188.505,370.111 188.515,370.265 187.800 C 370.360 187.360,370.727 186.323,371.081 185.496 C 371.435 184.669,371.646 183.912,371.549 183.815 C 371.451 183.718,371.063 184.351,370.686 185.222 M308.600 186.800 C 307.048 187.828,307.578 187.828,309.496 186.800 C 310.316 186.360,310.721 186.001,310.394 186.003 C 310.067 186.004,309.260 186.363,308.600 186.800 M304.400 188.400 C 303.410 188.815,302.895 189.165,303.256 189.178 C 303.617 189.190,304.697 188.844,305.656 188.409 C 307.877 187.401,306.798 187.394,304.400 188.400 M369.029 189.943 C 368.683 190.612,368.400 191.387,368.400 191.665 C 368.400 191.942,368.757 191.468,369.194 190.612 C 369.631 189.755,369.914 188.981,369.823 188.890 C 369.733 188.800,369.376 189.273,369.029 189.943 M298.400 190.261 L 297.000 190.826 298.387 190.606 C 299.151 190.484,299.952 190.208,300.168 189.993 C 300.686 189.474,300.144 189.557,298.400 190.261 M294.745 190.988 C 294.642 191.092,293.577 191.440,292.379 191.762 C 291.180 192.084,290.650 192.347,291.200 192.347 C 292.450 192.347,296.907 190.863,295.767 190.826 C 295.308 190.812,294.849 190.885,294.745 190.988 M286.600 192.844 C 285.940 193.051,284.410 193.388,283.200 193.594 L 281.000 193.968 283.600 193.777 C 285.030 193.673,286.920 193.328,287.800 193.011 C 289.552 192.380,288.534 192.239,286.600 192.844 M275.800 194.642 C 273.953 195.148,273.922 195.175,275.400 194.997 C 278.143 194.668,280.438 194.092,279.000 194.094 C 278.340 194.094,276.900 194.341,275.800 194.642 M365.983 196.704 C 365.442 197.734,364.325 199.572,363.501 200.788 C 362.676 202.005,362.001 203.159,362.001 203.354 C 362.000 203.807,363.288 202.158,364.152 200.600 C 364.518 199.940,365.363 198.434,366.029 197.253 C 366.695 196.072,367.178 195.045,367.103 194.969 C 367.027 194.894,366.523 195.675,365.983 196.704 M269.900 195.489 C 270.615 195.578,271.785 195.578,272.500 195.489 C 273.215 195.401,272.630 195.328,271.200 195.328 C 269.770 195.328,269.185 195.401,269.900 195.489 M263.800 195.827 C 263.580 195.917,262.140 196.150,260.600 196.345 C 258.017 196.671,257.955 196.700,259.800 196.718 C 260.900 196.728,263.060 196.498,264.600 196.207 C 266.838 195.783,267.079 195.675,265.800 195.670 C 264.920 195.666,264.020 195.737,263.800 195.827 M360.727 205.000 C 360.477 205.550,360.151 206.000,360.004 206.000 C 359.856 206.000,359.177 206.777,358.495 207.728 C 356.981 209.836,352.523 214.313,350.167 216.092 C 349.213 216.811,348.338 217.635,348.221 217.922 C 347.805 218.943,353.848 213.660,356.421 210.753 C 360.394 206.265,362.145 204.000,361.640 204.000 C 361.388 204.000,360.978 204.450,360.727 205.000 M346.442 219.100 C 344.160 220.834,343.527 221.544,345.290 220.392 C 346.329 219.713,347.284 218.987,347.413 218.779 C 347.758 218.221,347.476 218.314,346.442 219.100 M342.175 222.041 C 342.025 222.283,341.339 222.749,340.651 223.076 C 337.668 224.491,334.704 226.400,335.487 226.400 C 335.743 226.400,336.066 226.217,336.204 225.994 C 336.342 225.771,337.027 225.314,337.727 224.980 C 340.953 223.438,343.753 221.600,342.878 221.600 C 342.641 221.600,342.325 221.798,342.175 222.041 M333.000 227.200 C 332.340 227.637,331.980 227.995,332.200 227.995 C 332.420 227.995,333.140 227.637,333.800 227.200 C 334.460 226.763,334.820 226.405,334.600 226.405 C 334.380 226.405,333.660 226.763,333.000 227.200 M330.000 228.600 C 329.726 228.930,329.338 229.200,329.138 229.200 C 328.396 229.200,325.886 230.419,326.129 230.662 C 326.267 230.801,326.610 230.730,326.890 230.506 C 327.171 230.282,327.838 229.963,328.372 229.799 C 329.837 229.349,331.916 228.003,331.149 228.001 C 330.791 228.001,330.274 228.270,330.000 228.600 M322.604 231.594 C 322.470 231.810,321.784 232.154,321.080 232.358 C 320.299 232.584,320.112 232.735,320.600 232.747 C 321.040 232.758,322.030 232.422,322.800 232.000 C 323.629 231.546,323.924 231.227,323.524 231.217 C 323.152 231.208,322.738 231.377,322.604 231.594 M317.814 233.280 C 317.381 233.531,316.481 233.867,315.814 234.027 C 314.727 234.288,314.704 234.321,315.600 234.345 C 316.150 234.361,317.320 234.025,318.200 233.600 C 319.080 233.175,319.530 232.827,319.200 232.826 C 318.870 232.825,318.246 233.030,317.814 233.280 M312.400 235.031 L 311.400 235.633 312.400 235.368 C 313.852 234.984,314.803 234.424,314.000 234.426 C 313.670 234.427,312.950 234.699,312.400 235.031 M306.600 236.614 C 305.940 236.917,305.670 237.164,306.000 237.164 C 306.330 237.164,307.140 236.917,307.800 236.614 C 308.460 236.312,308.730 236.065,308.400 236.065 C 308.070 236.065,307.260 236.312,306.600 236.614 M300.000 238.225 C 299.148 238.548,298.913 238.752,299.400 238.747 C 299.840 238.743,300.830 238.497,301.600 238.200 C 302.438 237.877,302.679 237.668,302.200 237.678 C 301.760 237.688,300.770 237.934,300.000 238.225 M294.000 239.221 C 290.999 239.926,289.823 240.319,290.600 240.357 C 291.040 240.378,292.120 240.195,293.000 239.951 C 293.880 239.706,295.410 239.368,296.400 239.200 C 298.011 238.926,298.053 238.894,296.800 238.893 C 296.030 238.892,294.770 239.040,294.000 239.221 M284.224 240.850 C 282.121 241.342,281.767 241.792,283.800 241.388 C 284.680 241.213,286.210 240.943,287.200 240.788 L 289.000 240.507 287.400 240.494 C 286.520 240.486,285.091 240.647,284.224 240.850 M279.500 241.882 C 279.995 241.978,280.805 241.978,281.300 241.882 C 281.795 241.787,281.390 241.709,280.400 241.709 C 279.410 241.709,279.005 241.787,279.500 241.882 M270.026 242.454 C 267.145 242.932,266.787 243.394,269.600 243.002 C 270.810 242.834,272.970 242.565,274.400 242.405 L 277.000 242.114 274.600 242.104 C 273.280 242.098,271.222 242.256,270.026 242.454 M217.900 244.300 C 218.032 244.696,213.922 244.800,198.233 244.800 C 187.325 244.800,178.400 244.650,178.400 244.467 C 178.400 244.283,178.522 244.012,178.670 243.863 C 179.207 243.327,217.719 243.756,217.900 244.300 " stroke="none" fill="#747474" fill-rule="evenodd"></path></g></svg>